<svg width="216" height="361" viewBox="0 0 216 361" fill="none" xmlns="http://www.w3.org/2000/svg">
<g filter="url(#filter0_f_17_76)">
<path d="M5.21862 182.471C22.1435 151.311 57.4038 137.75 83.9747 152.182C104.274 163.208 129.583 173.176 155.835 190.806C171.281 201.179 174.306 220.919 158.546 230.809C119.891 255.065 43.2743 276.207 22.6844 265.023C-3.8865 250.591 -11.7062 213.631 5.21862 182.471Z" fill="url(#paint0_linear_17_76)"/>
</g>
<g filter="url(#filter1_f_17_76)">
<path d="M60.1972 57.9088C83.6496 84.6691 86.1583 120.826 65.8006 138.667C50.7636 151.845 35.3262 169.516 13.3907 185.442C-1.52817 196.274 -21.0739 192.117 -25.7188 174.275C-36.9674 131.068 -34.9133 55.5933 -19.1281 41.7594C1.22961 23.9182 36.7447 31.1485 60.1972 57.9088Z" fill="url(#paint1_linear_17_76)"/>
</g>
<defs>
<filter id="filter0_f_17_76" x="-32.7196" y="117.409" width="230.711" height="179.688" filterUnits="userSpaceOnUse" color-interpolation-filters="sRGB">
<feFlood flood-opacity="0" result="BackgroundImageFix"/>
<feBlend mode="normal" in="SourceGraphic" in2="BackgroundImageFix" result="shape"/>
<feGaussianBlur stdDeviation="5" result="effect1_foregroundBlur_17_76"/>
</filter>
<filter id="filter1_f_17_76" x="-61.8205" y="2.97174" width="170.389" height="217.404" filterUnits="userSpaceOnUse" color-interpolation-filters="sRGB">
<feFlood flood-opacity="0" result="BackgroundImageFix"/>
<feBlend mode="normal" in="SourceGraphic" in2="BackgroundImageFix" result="shape"/>
<feGaussianBlur stdDeviation="5" result="effect1_foregroundBlur_17_76"/>
</filter>
<linearGradient id="paint0_linear_17_76" x1="47.9486" y1="278.746" x2="109.997" y2="164.509" gradientUnits="userSpaceOnUse">
<stop stop-color="#72A4F2"/>
<stop offset="1" stop-color="white"/>
</linearGradient>
<linearGradient id="paint1_linear_17_76" x1="-38.4846" y1="58.7232" x2="47.4943" y2="156.829" gradientUnits="userSpaceOnUse">
<stop offset="0.480769" stop-color="#8C7CDC"/>
<stop offset="1" stop-color="white"/>
</linearGradient>
</defs>
</svg>
