<svg width="80" height="70" viewBox="0 0 80 70" fill="none" xmlns="http://www.w3.org/2000/svg">
<path d="M20.5227 0.734131L36.733 15.8078C37.6955 16.7027 38.2502 18.0159 38.2502 19.399V30.7594L22.0397 15.6857C21.0773 14.7908 20.5227 13.4776 20.5227 12.0944V0.734131Z" fill="#8C7CDC"/>
<path d="M20.5227 69.0268L36.733 53.9531C37.6955 53.0583 38.2502 51.745 38.2502 50.3619V39.0016L22.0397 54.0754C21.0773 54.9702 20.5227 56.2834 20.5227 57.6665V69.0268Z" fill="url(#paint0_linear_15_80)"/>
<path d="M1.18336 16.6299L17.1733 31.4155C17.9485 32.1324 18.9304 32.5256 19.9446 32.5256H32.8398L16.8893 17.7433C16.1134 17.0243 15.1303 16.6299 14.1143 16.6299H1.18336Z" fill="#8C7CDC"/>
<path d="M1.18336 53.131L17.075 38.354C17.8516 37.6318 18.837 37.2354 19.8554 37.2354H32.8783L16.8883 52.0209C16.1131 52.7378 15.1314 53.131 14.117 53.131H1.18336Z" fill="url(#paint1_linear_15_80)"/>
<path d="M60.2755 0.734131L44.0649 15.8078C43.1026 16.7027 42.5479 18.0159 42.5479 19.399V30.7594L58.7583 15.6857C59.7208 14.7908 60.2755 13.4776 60.2755 12.0944V0.734131Z" fill="#8C7CDC"/>
<path d="M60.2755 69.0268L44.0649 53.9531C43.1026 53.0583 42.5479 51.745 42.5479 50.3619V39.0016L58.7583 54.0754C59.7208 54.9702 60.2755 56.2834 60.2755 57.6665V69.0268Z" fill="#8C7CDC"/>
<path d="M79.6147 16.6299L63.6248 31.4155C62.8496 32.1324 61.8678 32.5256 60.8535 32.5256H47.9581L63.9089 17.7433C64.6845 17.0243 65.6678 16.6299 66.6838 16.6299H79.6147Z" fill="#8C7CDC"/>
<path d="M79.6147 53.131L63.7231 38.354C62.9465 37.6318 61.9611 37.2354 60.9427 37.2354H47.9198L63.9098 52.0209C64.685 52.7378 65.6667 53.131 66.6811 53.131H79.6147Z" fill="#8C7CDC"/>
<defs>
<linearGradient id="paint0_linear_15_80" x1="29.3864" y1="39.0016" x2="29.3864" y2="69.0268" gradientUnits="userSpaceOnUse">
<stop stop-color="#8C7CDC"/>
<stop offset="1" stop-color="#4B4376"/>
</linearGradient>
<linearGradient id="paint1_linear_15_80" x1="17.0308" y1="37.2354" x2="17.0308" y2="53.131" gradientUnits="userSpaceOnUse">
<stop stop-color="#8C7CDC"/>
<stop offset="1" stop-color="#4B4376"/>
</linearGradient>
</defs>
</svg>
