<svg width="43" height="41" viewBox="0 0 43 41" fill="none" xmlns="http://www.w3.org/2000/svg">
<g clip-path="url(#clip0_25_278)">
<path d="M11.0309 0.430054L19.744 9.25892C20.2613 9.78307 20.5595 10.5523 20.5595 11.3624V18.0163L11.8463 9.18739C11.3291 8.66325 11.0309 7.89406 11.0309 7.08392V0.430054Z" fill="white"/>
<path d="M11.0309 40.4301L19.744 31.6012C20.2613 31.0771 20.5595 30.3079 20.5595 29.4978V22.8439L11.8463 31.6728C11.3291 32.1969 11.0309 32.9661 11.0309 33.7762V40.4301Z" fill="white"/>
<path d="M0.636059 9.74036L9.23067 18.4005C9.64735 18.8204 10.1751 19.0507 10.7202 19.0507H17.6514L9.07797 10.3925C8.66096 9.97142 8.13254 9.74036 7.58643 9.74036H0.636059Z" fill="white"/>
<path d="M0.636059 31.1196L9.1778 22.4645C9.59524 22.0415 10.1249 21.8093 10.6723 21.8093H17.6721L9.07747 30.4694C8.66079 30.8893 8.13311 31.1196 7.58787 31.1196H0.636059Z" fill="white"/>
<path d="M32.3981 0.430054L23.6849 9.25892C23.1676 9.78307 22.8695 10.5523 22.8695 11.3624V18.0163L31.5826 9.18739C32.0999 8.66325 32.3981 7.89406 32.3981 7.08392V0.430054Z" fill="white"/>
<path d="M32.3981 40.4301L23.6849 31.6012C23.1676 31.0771 22.8695 30.3079 22.8695 29.4978V22.8439L31.5826 31.6728C32.0999 32.1969 32.3981 32.9661 32.3981 33.7762V40.4301Z" fill="white"/>
<path d="M42.7929 9.74036L34.1983 18.4005C33.7816 18.8204 33.2539 19.0507 32.7088 19.0507H25.7775L34.351 10.3925C34.7679 9.97142 35.2964 9.74036 35.8425 9.74036H42.7929Z" fill="white"/>
<path d="M42.7929 31.1196L34.2512 22.4645C33.8337 22.0415 33.3041 21.8093 32.7567 21.8093H25.7569L34.3515 30.4694C34.7682 30.8893 35.2958 31.1196 35.8411 31.1196H42.7929Z" fill="white"/>
</g>
<defs>
<clipPath id="clip0_25_278">
<rect width="43" height="41" fill="white"/>
</clipPath>
</defs>
</svg>
