<svg width="177" height="160" viewBox="0 0 177 160" fill="none" xmlns="http://www.w3.org/2000/svg">
<path d="M45.4064 1.67801L81.2718 36.1321C83.4014 38.1776 84.6286 41.1793 84.6286 44.3407V70.3071L48.7628 35.853C46.6336 33.8076 45.4064 30.8058 45.4064 27.6443V1.67801Z" fill="#467CEB"/>
<path d="M45.4064 157.776L81.2718 123.321C83.4014 121.276 84.6286 118.274 84.6286 115.113V89.1465L48.7628 123.601C46.6336 125.646 45.4064 128.648 45.4064 131.809V157.776Z" fill="#467CEB"/>
<path d="M2.61819 38.0111L37.996 71.8068C39.7112 73.4455 41.8834 74.3442 44.1275 74.3442H72.6582L37.3675 40.5561C35.6509 38.9128 33.4758 38.0111 31.2279 38.0111H2.61819Z" fill="#467CEB"/>
<path d="M2.61819 121.442L37.7784 87.6663C39.4967 86.0156 41.6769 85.1094 43.93 85.1094H72.7432L37.3654 118.905C35.6502 120.544 33.4782 121.442 31.2338 121.442H2.61819Z" fill="#467CEB"/>
<path d="M133.359 1.67801L97.4937 36.1321C95.3645 38.1776 94.1373 41.1793 94.1373 44.3407V70.3071L130.003 35.853C132.132 33.8076 133.359 30.8058 133.359 27.6443V1.67801Z" fill="#467CEB"/>
<path d="M133.359 157.776L97.4937 123.321C95.3645 121.276 94.1373 118.274 94.1373 115.113V89.1465L130.003 123.601C132.132 125.646 133.359 128.648 133.359 131.809V157.776Z" fill="#467CEB"/>
<path d="M176.148 38.0111L140.77 71.8068C139.055 73.4455 136.882 74.3442 134.638 74.3442H106.107L141.398 40.5561C143.115 38.9128 145.29 38.0111 147.538 38.0111H176.148Z" fill="#467CEB"/>
<path d="M176.148 121.442L140.987 87.6663C139.269 86.0156 137.089 85.1094 134.836 85.1094H106.023L141.4 118.905C143.116 120.544 145.287 121.442 147.532 121.442H176.148Z" fill="#467CEB"/>
</svg>
