<?xml version="1.0" encoding="utf-8"?>
<svg xmlns="http://www.w3.org/2000/svg" fill="none" height="56" width="56">
  <path d="m30.826 28.02 4.15 4.742 5.611 3.596.988-8.299-.988-8.101-5.69 3.161-4.071 4.9Z" fill="#00832D"/>
  <path d="M6.64 35.568v7.074a2.918 2.918 0 0 0 2.924 2.925h7.074L18.1 40.23l-1.423-4.663-4.86-1.462-5.178 1.462Z" fill="#0066DA"/>
  <path d="M16.677 10.433 6.64 20.432l5.138 1.462 4.861-1.462 1.423-4.584-1.384-5.415Z" fill="#E94235"/>
  <path d="M16.677 20.432H6.64v15.136h9.999V20.432h.04Z" fill="#2684FC"/>
  <path d="m46.95 14.662-6.402 5.256v16.44l6.402 5.257c.948.75 2.371.079 2.371-1.146V15.808c.04-1.225-1.383-1.936-2.371-1.146ZM30.826 28.02v7.548H16.677v9.999h20.986a2.918 2.918 0 0 0 2.924-2.925v-6.284l-9.761-8.338Z" fill="#00AC47"/>
  <path d="M37.663 10.433H16.678v9.999h14.148v7.548l9.761-8.101v-6.521a2.918 2.918 0 0 0-2.924-2.925Z" fill="#FFBA00"/>
</svg>