<svg xmlns="http://www.w3.org/2000/svg" fill="none" viewBox="4.31 6.2 221.46 468.91">
  <path fill="#141414" stroke="#fff" stroke-width=".2" d="M39.39 10.86a14.87 14.87 0 0 1-3.17 14.46l-.5.52-1.95 1.94-.04.05.02.07a7.26 7.26 0 0 1-1.14 7.57l-.4.42-2.42 2.43c-.5.5-1.28.56-1.84.17l-.21-.17-2.63-2.63-.04-.04-.05.02a4.54 4.54 0 0 1-4-.85l-.37-.34-.51-.51-.1-.1-.06.12-1.43 2.39a1.45 1.45 0 0 1-2.06.45l-.2-.18-6.57-6.56a1.45 1.45 0 0 1-.41-1.2l-.1-.01.1.01c.04-.35.21-.67.47-.9l.23-.17 2.38-1.42.11-.07-.09-.09-.52-.51a4.53 4.53 0 0 1-1.27-3.91l.1-.46v-.06l-.03-.04-2.63-2.62c-.5-.5-.56-1.28-.17-1.85l.17-.2 2.43-2.43a7.25 7.25 0 0 1 7.49-1.73l.5.2.07.02.04-.05 1.95-1.94-.07-.07.07.07a14.87 14.87 0 0 1 14.98-3.67 5.92 5.92 0 0 1 3.87 3.87ZM8.5 33.35l.07.07-.07-.07-1.64 1.64.07.07-.07-.07a1.45 1.45 0 0 1-2.05-2.05l1.64-1.64a1.45 1.45 0 0 1 2.05 2.05Zm22.92-2.99-.02-.21-.15.15-3.65 3.65-.07.07.07.07 1.08 1.1.08.06.07-.07 1.33-1.33a4.35 4.35 0 0 0 1.26-3.49ZM14.67 28.5l-.06-.06-.07.04-1.35.81-.11.07.09.09 3.76 3.76.1.09.06-.11.8-1.35.05-.07-.06-.06-3.21-3.21Zm8.43-16.28-.51.48-8.65 8.65a1.65 1.65 0 0 0-.2 2.1h.01l.18.22h.01l8.76 8.77c.57.57 1.46.63 2.1.19l.22-.19 8.65-8.65c3.16-3.15 4.3-7.8 2.96-12.06a3.03 3.03 0 0 0-1.98-1.98 11.98 11.98 0 0 0-11.55 2.47Zm-10.2 3.65-.36.33-1.34 1.34-.07.07.07.07 1.09 1.1.07.06.07-.07 3.65-3.65.15-.15-.21-.02c-1.1-.1-2.21.2-3.11.92Zm2.18 22c.5.5.55 1.28.17 1.84l-.18.2-1.63 1.64a1.45 1.45 0 0 1-2.22-1.84l.18-.2 1.63-1.64a1.45 1.45 0 0 1 2.05 0Zm-3.29-3.28c.5.5.56 1.27.17 1.84l-.17.2-4.08 4.09a1.45 1.45 0 0 1-2.22-1.85l.18-.2 4.08-4.08-.07-.07.07.07a1.45 1.45 0 0 1 2.04 0l.07-.07-.07.07Zm17.97-17.97a4.92 4.92 0 1 1-6.94 6.96 4.92 4.92 0 0 1 6.94-6.96Zm-4.9 2.04a2 2 0 0 0 0 2.85c.8.8 2.08.8 2.86.02a2.02 2.02 0 0 0-2.87-2.87Zm76.39-7.8c1.6 5.06.37 10.56-3.17 14.46l-.5.52-1.94 1.94-.05.05.03.07a7.26 7.26 0 0 1-1.15 7.57l-.39.42-2.43 2.43c-.5.5-1.28.56-1.84.17l-.2-.17-2.63-2.63-.04-.04-.06.02a4.54 4.54 0 0 1-4-.85l-.36-.34-.52-.51-.09-.1-.06.12-1.43 2.39a1.45 1.45 0 0 1-2.06.45l-.21-.18-6.57-6.56a1.45 1.45 0 0 1-.4-1.2l-.1-.01.1.01c.04-.35.2-.67.47-.9l.22-.17 2.38-1.42.11-.07-.09-.09-.51-.51a4.53 4.53 0 0 1-1.28-3.91l.1-.46v-.06l-.03-.04-2.63-2.62c-.5-.5-.56-1.28-.17-1.85l.17-.2 2.43-2.43a7.25 7.25 0 0 1 7.5-1.73l.5.2.06.02.05-.05 1.94-1.94-.07-.07.07.07a14.87 14.87 0 0 1 14.98-3.67 5.92 5.92 0 0 1 3.87 3.87ZM70.37 33.35l.07.07-.07-.07-1.63 1.64.07.07-.07-.07a1.45 1.45 0 1 1-2.05-2.05l1.64-1.64a1.45 1.45 0 0 1 2.04 2.05Zm22.92-2.99-.02-.21-.15.15-3.65 3.65-.07.07.07.07 1.09 1.1.07.06.07-.07 1.34-1.33a4.35 4.35 0 0 0 1.25-3.49ZM76.53 28.5l-.06-.06-.06.04-1.36.81-.1.07.08.09 3.77 3.76.09.09.06-.11.81-1.35.04-.07-.05-.06-3.22-3.21Zm8.43-16.28-.5.48h-.01l-8.65 8.65a1.65 1.65 0 0 0-.19 2.1l.19.22 8.76 8.77c.58.57 1.46.63 2.1.19h.01l.22-.19 8.65-8.65c3.15-3.15 4.3-7.8 2.95-12.06a3.03 3.03 0 0 0-1.98-1.98 11.98 11.98 0 0 0-11.55 2.47Zm-10.19 3.65-.37.33-1.34 1.34-.07.07.07.07 1.09 1.1.07.06.07-.07 3.65-3.65.16-.15-.22-.02c-1.09-.1-2.2.2-3.11.92Zm2.17 22c.5.5.56 1.28.17 1.84l-.17.2-1.64 1.64a1.45 1.45 0 0 1-2.21-1.84l.17-.2 1.63-1.64a1.45 1.45 0 0 1 2.05 0Zm-3.28-3.28c.5.5.55 1.27.17 1.84l-.18.2-4.08 4.09a1.45 1.45 0 0 1-2.21-1.85l.17-.2 4.08-4.08-.07-.07.07.07a1.45 1.45 0 0 1 2.05 0l.07-.07-.07.07Zm17.96-17.97a4.92 4.92 0 1 1-6.94 6.96 4.92 4.92 0 0 1 6.94-6.96Zm-4.9 2.04a2.02 2.02 0 0 0 2.87 2.87 2.03 2.03 0 0 0-2.87-2.87Zm76.4-7.8a14.88 14.88 0 0 1-3.18 14.46l-.5.52-1.94 1.94-.05.05.03.07a7.26 7.26 0 0 1-1.15 7.57l-.38.42-2.43 2.43c-.5.5-1.28.56-1.84.17l-.21-.17-2.63-2.63-.04-.04-.05.02a4.54 4.54 0 0 1-4-.85l-.37-.34-.51-.51-.1-.1-.06.12-1.43 2.39a1.45 1.45 0 0 1-2.06.45l-.2-.18-6.57-6.56a1.45 1.45 0 0 1-.41-1.2l-.1-.01.1.01c.04-.35.21-.67.47-.9l.22-.17 2.39-1.42.1-.07-.08-.09-.52-.51a4.53 4.53 0 0 1-1.27-3.91l.1-.46v-.06l-.03-.04-2.63-2.62c-.5-.5-.56-1.28-.17-1.85l.17-.2 2.43-2.43a7.25 7.25 0 0 1 7.49-1.73l.5.2.07.02.04-.05 1.95-1.94-.07-.07.07.07a14.87 14.87 0 0 1 14.98-3.67 5.92 5.92 0 0 1 3.87 3.87Zm-30.88 22.49.07.07-.07-.07-1.64 1.64.07.07-.07-.07a1.45 1.45 0 1 1-2.05-2.05l1.64-1.64a1.45 1.45 0 1 1 2.05 2.05Zm22.92-2.99-.02-.21-.15.15-3.66 3.65-.07.07.08.07 1.08 1.1.07.06.07-.07 1.34-1.33a4.35 4.35 0 0 0 1.26-3.49Zm-16.77-1.86-.05-.06-.07.04-1.35.81-.11.07.09.09 3.76 3.76.1.09.06-.11.8-1.35.05-.07-.06-.06-3.22-3.21Zm8.43-16.28-.5.48-8.65 8.65a1.65 1.65 0 0 0-.2 2.1h.01l.18.22 8.77 8.77c.57.57 1.46.63 2.1.19l.22-.19 8.65-8.65c3.16-3.15 4.3-7.8 2.96-12.06a3.03 3.03 0 0 0-1.98-1.98 11.98 11.98 0 0 0-11.56 2.47Zm-10.19 3.65-.36.33-1.34 1.34-.08.07.08.07 1.08 1.1.08.06.07-.07 3.65-3.65.15-.15-.21-.02c-1.1-.1-2.21.2-3.12.92Zm2.17 22c.5.5.56 1.28.17 1.84l-.17.2-1.63 1.64a1.45 1.45 0 0 1-2.22-1.84l.17-.2 1.64-1.64a1.45 1.45 0 0 1 2.04 0Zm-3.28-3.28c.5.5.56 1.27.17 1.84l-.17.2-4.08 4.09a1.45 1.45 0 0 1-2.22-1.85l.18-.2 4.08-4.08-.07-.07.07.07a1.45 1.45 0 0 1 2.04 0l.07-.07-.07.07Zm17.97-17.97a4.91 4.91 0 1 1-6.94 6.96 4.91 4.91 0 0 1 6.94-6.96Zm-4.9 2.04a2 2 0 0 0 0 2.85c.8.8 2.08.8 2.86.02.78-.78.79-2.06-.01-2.86-.8-.8-2.08-.8-2.86-.01Zm76.39-7.8c1.6 5.06.37 10.56-3.17 14.46l-.5.52-1.94 1.94-.05.05.03.07a7.26 7.26 0 0 1-1.15 7.57l-.39.42-2.43 2.43c-.5.5-1.28.56-1.84.17l-.2-.17-2.63-2.63-.04-.04-.06.02a4.54 4.54 0 0 1-4-.85l-.37-.34-.5-.51-.1-.1-.06.12-1.44 2.39a1.45 1.45 0 0 1-2.05.45l-.21-.18-6.57-6.56a1.44 1.44 0 0 1-.4-1.2l-.1-.01.1.01c.03-.35.2-.67.47-.9l.22-.17 2.38-1.42.11-.07-.09-.09-.51-.51a4.53 4.53 0 0 1-1.28-3.91l.1-.46v-.06l-.03-.04-2.63-2.62c-.5-.5-.56-1.28-.17-1.85l.17-.2 2.43-2.43a7.25 7.25 0 0 1 7.5-1.73l.5.2.06.02.05-.05 1.94-1.94-.07-.07.07.07a14.87 14.87 0 0 1 14.98-3.67 5.92 5.92 0 0 1 3.87 3.87ZM194.1 33.35l.07.07-.07-.07-1.64 1.64.07.07-.07-.07a1.45 1.45 0 0 1-2.05-2.05l1.65-1.64a1.45 1.45 0 0 1 2.04 2.05Zm22.92-2.99-.02-.21-.15.15-3.65 3.65-.07.07.07.07 1.09 1.1.07.06.07-.07 1.33-1.33a4.35 4.35 0 0 0 1.26-3.49Zm-16.76-1.86-.06-.06-.06.04-1.36.81-.1.07.08.09 3.76 3.76.1.09.06-.11.81-1.35.04-.07-.05-.06-3.22-3.21Zm8.43-16.28-.51.48-8.65 8.65a1.65 1.65 0 0 0-.19 2.1l.19.22 8.76 8.77c.57.57 1.46.63 2.1.19h.01l.21-.19h.01l8.65-8.65c3.15-3.15 4.3-7.8 2.95-12.06a3.02 3.02 0 0 0-1.98-1.98 11.98 11.98 0 0 0-11.55 2.47Zm-10.2 3.65-.36.33-1.34 1.34-.07.07.07.07 1.09 1.1.07.06.07-.07 3.65-3.65.15-.15-.2-.02c-1.1-.1-2.22.2-3.12.92Zm2.18 22c.5.5.56 1.28.17 1.84l-.17.2-1.64 1.64a1.45 1.45 0 0 1-2.22-1.84l.18-.2 1.63-1.64a1.45 1.45 0 0 1 2.05 0Zm-3.28-3.28c.5.5.55 1.27.17 1.84l-.18.2-4.08 4.09a1.45 1.45 0 0 1-2.21-1.85l.17-.2 4.08-4.08-.07-.07.07.07a1.45 1.45 0 0 1 2.05 0l.07-.07-.07.07Zm17.96-17.97a4.91 4.91 0 1 1-6.94 6.96 4.91 4.91 0 0 1 6.94-6.96Zm-4.9 2.04a2.02 2.02 0 0 0 2.87 2.87c.78-.78.78-2.06-.02-2.86-.8-.8-2.07-.8-2.86-.01ZM39.39 72.72a14.87 14.87 0 0 1-3.17 14.46l-.5.52-1.95 1.95-.04.05.02.06a7.26 7.26 0 0 1-1.14 7.58l-.4.42-2.42 2.43c-.5.5-1.28.55-1.84.17l-.21-.18-2.63-2.62-.04-.04-.05.01a4.54 4.54 0 0 1-4-.85l-.37-.33-.51-.52-.1-.09-.06.11-1.43 2.4a1.45 1.45 0 0 1-2.06.44l-.2-.17-6.57-6.56a1.45 1.45 0 0 1-.41-1.2l-.1-.02.1.01c.04-.35.21-.67.47-.9l.23-.16 2.38-1.43.11-.06-.09-.1-.52-.51a4.53 4.53 0 0 1-1.27-3.9l.1-.47v-.05l-.03-.04-2.63-2.63c-.5-.5-.56-1.28-.17-1.84l.17-.2 2.43-2.44a7.25 7.25 0 0 1 7.49-1.72l.5.2.07.02.04-.05 1.95-1.95-.07-.07.07.07a14.87 14.87 0 0 1 14.98-3.66 5.92 5.92 0 0 1 3.87 3.86ZM8.5 95.22l.07.06-.07-.07-1.64 1.64.07.07-.07-.07a1.45 1.45 0 0 1-2.05-2.05l1.64-1.63a1.45 1.45 0 0 1 2.05 2.04Zm22.92-3-.02-.2-.15.14-3.65 3.66-.07.07.07.07 1.08 1.09.08.07.07-.07 1.33-1.34a4.35 4.35 0 0 0 1.26-3.49Zm-16.76-1.86-.06-.05-.07.04-1.35.8-.11.07.09.1 3.76 3.75.1.1.06-.12.8-1.35.05-.07-.06-.05-3.21-3.22ZM23.1 74.1l-.51.48-8.65 8.65a1.65 1.65 0 0 0-.2 2.1h.01l.18.22h.01l8.76 8.76c.57.57 1.46.64 2.1.2v-.01l.22-.18 8.65-8.65c3.16-3.16 4.3-7.8 2.96-12.07a3.03 3.03 0 0 0-1.98-1.97A11.98 11.98 0 0 0 23.1 74.1Zm-10.2 3.65-.36.33-1.34 1.34-.07.07.07.07 1.09 1.09.07.07.07-.07 3.65-3.66.15-.15-.21-.02c-1.1-.1-2.21.21-3.11.93Zm2.18 22c.5.5.55 1.27.17 1.84l-.18.2-1.63 1.64a1.45 1.45 0 0 1-2.22-1.84l.18-.21 1.63-1.64a1.45 1.45 0 0 1 2.05 0Zm-3.29-3.29c.5.5.56 1.28.17 1.84l-.17.2-4.08 4.09a1.45 1.45 0 0 1-2.22-1.84l.18-.2 4.08-4.09-.07-.07.07.07a1.45 1.45 0 0 1 2.04 0l.07-.07-.07.07ZM29.76 78.5a4.92 4.92 0 1 1-6.94 6.96 4.92 4.92 0 0 1 6.94-6.96Zm-4.9 2.03c-.79.78-.8 2.06 0 2.86.8.8 2.08.8 2.86.01a2.02 2.02 0 0 0-2.87-2.87Zm76.39-7.81c1.6 5.06.37 10.56-3.17 14.46l-.5.52-1.94 1.95-.05.05.03.06a7.26 7.26 0 0 1-1.15 7.58l-.39.42-2.43 2.43c-.5.5-1.28.55-1.84.17l-.2-.18-2.63-2.62-.04-.04-.06.01a4.54 4.54 0 0 1-4-.85l-.36-.33-.52-.52-.09-.09-.06.11-1.43 2.4a1.45 1.45 0 0 1-2.06.44l-.21-.17-6.57-6.56a1.45 1.45 0 0 1-.4-1.2l-.1-.02.1.01c.04-.35.2-.67.47-.9l.22-.16 2.38-1.43.11-.06-.09-.1-.51-.51a4.53 4.53 0 0 1-1.28-3.9l.1-.47v-.05l-.03-.04-2.63-2.63c-.5-.5-.56-1.28-.17-1.84l.17-.2 2.43-2.44a7.25 7.25 0 0 1 7.5-1.72l.5.2.06.02.05-.05 1.94-1.95-.07-.07.07.07a14.87 14.87 0 0 1 14.98-3.66 5.92 5.92 0 0 1 3.87 3.86Zm-30.88 22.5.07.06-.07-.07-1.63 1.64.07.07-.07-.07a1.45 1.45 0 1 1-2.05-2.05l1.64-1.63a1.45 1.45 0 0 1 2.04 2.04Zm22.92-3-.02-.2-.15.14-3.65 3.66-.07.07.07.07 1.09 1.09.07.07.07-.07 1.34-1.34a4.35 4.35 0 0 0 1.25-3.49Zm-16.76-1.86-.06-.05-.06.04-1.36.8-.1.07.08.1 3.77 3.75.09.1.06-.12.81-1.35.04-.07-.05-.05-3.22-3.22Zm8.43-16.27-.5.48h-.01l-8.65 8.65a1.65 1.65 0 0 0-.19 2.1l.19.22 8.76 8.76c.58.57 1.46.64 2.1.2l.01-.01.22-.18 8.65-8.65c3.15-3.16 4.3-7.8 2.95-12.07a3.03 3.03 0 0 0-1.98-1.97 11.98 11.98 0 0 0-11.55 2.47Zm-10.19 3.65-.37.33-1.34 1.34-.07.07.07.07 1.09 1.09.07.07.07-.07 3.65-3.66.16-.15-.22-.02c-1.09-.1-2.2.21-3.11.93Zm2.17 22c.5.5.56 1.27.17 1.84l-.17.2-1.64 1.64a1.45 1.45 0 0 1-2.21-1.84l.17-.21 1.63-1.64a1.45 1.45 0 0 1 2.05 0Zm-3.28-3.29c.5.5.55 1.28.17 1.84l-.18.2-4.08 4.09a1.45 1.45 0 0 1-2.21-1.84l.17-.2 4.08-4.09-.07-.07.07.07a1.45 1.45 0 0 1 2.05 0l.07-.07-.07.07Zm17.96-17.96a4.92 4.92 0 1 1-6.94 6.96 4.92 4.92 0 0 1 6.94-6.96Zm-4.9 2.03a2.02 2.02 0 0 0 2.87 2.87 2.03 2.03 0 0 0-2.87-2.87Zm76.4-7.8a14.88 14.88 0 0 1-3.18 14.46l-.5.52-1.94 1.95-.05.05.03.06a7.26 7.26 0 0 1-1.15 7.58l-.38.42-2.43 2.43c-.5.5-1.28.55-1.84.17l-.21-.18-2.63-2.62-.04-.04-.05.01a4.54 4.54 0 0 1-4-.85l-.37-.33-.51-.52-.1-.09-.06.11-1.43 2.4a1.45 1.45 0 0 1-2.06.44l-.2-.17-6.57-6.56a1.45 1.45 0 0 1-.41-1.2l-.1-.02.1.01c.04-.35.21-.67.47-.9l.22-.16 2.39-1.43.1-.06-.08-.1-.52-.51a4.53 4.53 0 0 1-1.27-3.9l.1-.47v-.05l-.03-.04-2.63-2.63c-.5-.5-.56-1.28-.17-1.84l.17-.2 2.43-2.44a7.25 7.25 0 0 1 7.49-1.72l.5.2.07.02.04-.05 1.95-1.95-.07-.07.07.07a14.87 14.87 0 0 1 14.98-3.66 5.92 5.92 0 0 1 3.87 3.86Zm-30.88 22.5.07.06-.07-.07-1.64 1.64.07.07-.07-.07a1.45 1.45 0 1 1-2.05-2.05l1.64-1.63a1.45 1.45 0 1 1 2.05 2.04Zm22.92-3-.02-.2-.15.14-3.66 3.66-.07.07.08.07 1.08 1.09.07.07.07-.07 1.34-1.34a4.35 4.35 0 0 0 1.26-3.49Zm-16.77-1.86-.05-.05-.07.04-1.35.8-.11.07.09.1 3.76 3.75.1.1.06-.12.8-1.35.05-.07-.06-.05-3.22-3.22Zm8.43-16.27-.5.48-8.65 8.65a1.65 1.65 0 0 0-.2 2.1h.01l.18.22 8.77 8.76c.57.57 1.46.64 2.1.2v-.01l.22-.18 8.65-8.65c3.16-3.16 4.3-7.8 2.96-12.07a3.03 3.03 0 0 0-1.98-1.97 11.98 11.98 0 0 0-11.56 2.47Zm-10.19 3.65-.36.33-1.34 1.34-.08.07.08.07 1.08 1.09.08.07.07-.07 3.65-3.66.15-.15-.21-.02c-1.1-.1-2.21.21-3.12.93Zm2.17 22c.5.5.56 1.27.17 1.84l-.17.2-1.63 1.64a1.45 1.45 0 0 1-2.22-1.84l.17-.21 1.64-1.64a1.45 1.45 0 0 1 2.04 0Zm-3.28-3.29c.5.5.56 1.28.17 1.84l-.17.2-4.08 4.09a1.45 1.45 0 0 1-2.22-1.84l.18-.2 4.08-4.09-.07-.07.07.07a1.45 1.45 0 0 1 2.04 0l.07-.07-.07.07Zm17.97-17.96a4.91 4.91 0 1 1-6.94 6.96 4.91 4.91 0 0 1 6.94-6.96Zm-4.9 2.03c-.79.78-.8 2.06 0 2.86a2.01 2.01 0 1 0 2.85-2.85c-.8-.8-2.08-.8-2.86-.01Zm76.39-7.8c1.6 5.06.37 10.56-3.17 14.46l-.5.52-1.94 1.95-.05.05.03.06a7.26 7.26 0 0 1-1.15 7.58l-.39.42-2.43 2.43c-.5.5-1.28.55-1.84.17l-.2-.18-2.63-2.62-.04-.04-.06.01a4.54 4.54 0 0 1-4-.85l-.37-.33-.5-.52-.1-.09-.06.11-1.44 2.4a1.45 1.45 0 0 1-2.05.44l-.21-.17-6.57-6.56a1.44 1.44 0 0 1-.4-1.2l-.1-.02.1.01c.03-.35.2-.67.47-.9l.22-.16 2.38-1.43.11-.06-.09-.1-.51-.51a4.53 4.53 0 0 1-1.28-3.9l.1-.47v-.05l-.03-.04-2.63-2.63c-.5-.5-.56-1.28-.17-1.84l.17-.2 2.43-2.44a7.25 7.25 0 0 1 7.5-1.72l.5.2.06.02.05-.05 1.94-1.95-.07-.07.07.07a14.87 14.87 0 0 1 14.98-3.66 5.92 5.92 0 0 1 3.87 3.86Zm-30.88 22.5.07.06-.07-.07-1.64 1.64.07.07-.07-.07a1.45 1.45 0 0 1-2.05-2.05l1.65-1.63a1.45 1.45 0 0 1 2.04 2.04Zm22.92-3-.02-.2-.15.14-3.65 3.66-.07.07.07.07 1.09 1.09.07.07.07-.07 1.33-1.34a4.35 4.35 0 0 0 1.26-3.49Zm-16.76-1.86-.06-.05-.06.04-1.36.8-.1.07.08.1 3.76 3.75.1.1.06-.12.81-1.35.04-.07-.05-.05-3.22-3.22Zm8.43-16.27-.51.48-8.65 8.65a1.65 1.65 0 0 0-.19 2.1l.19.22 8.76 8.76c.57.57 1.46.64 2.1.2l.01-.01.21-.18h.01l8.65-8.65c3.15-3.16 4.3-7.8 2.95-12.07a3.02 3.02 0 0 0-1.98-1.97 11.98 11.98 0 0 0-11.55 2.47Zm-10.2 3.65-.36.33-1.34 1.34-.07.07.07.07 1.09 1.09.07.07.07-.07 3.65-3.66.15-.15-.2-.02c-1.1-.1-2.22.21-3.12.93Zm2.18 22c.5.5.56 1.27.17 1.84l-.17.2-1.64 1.64a1.45 1.45 0 0 1-2.22-1.84l.18-.21 1.63-1.64a1.45 1.45 0 0 1 2.05 0Zm-3.28-3.29c.5.5.55 1.28.17 1.84l-.18.2-4.08 4.09a1.45 1.45 0 0 1-2.21-1.84l.17-.2 4.08-4.09-.07-.07.07.07a1.45 1.45 0 0 1 2.05 0l.07-.07-.07.07Zm17.96-17.96a4.91 4.91 0 1 1-6.94 6.96 4.91 4.91 0 0 1 6.94-6.96Zm-4.9 2.03a2.02 2.02 0 0 0 0 2.86 2.02 2.02 0 1 0 2.85-2.85 2 2 0 0 0-2.85-.01ZM39.39 134.59a14.87 14.87 0 0 1-3.17 14.46l-.5.52-1.95 1.94-.04.05.02.06a7.26 7.26 0 0 1-1.14 7.58l-.4.42-2.42 2.43c-.5.5-1.28.56-1.84.17l-.21-.17-2.63-2.63-.04-.04-.05.02a4.54 4.54 0 0 1-4-.85l-.37-.34-.51-.51-.1-.1-.06.12-1.43 2.39a1.45 1.45 0 0 1-2.06.45l-.2-.18-6.57-6.56a1.45 1.45 0 0 1-.41-1.2l-.1-.01h.1c.04-.34.21-.66.47-.9l.23-.16 2.38-1.42.11-.07-.09-.09-.52-.52a4.53 4.53 0 0 1-1.27-3.9l.1-.47v-.05l-.03-.04-2.63-2.63c-.5-.5-.56-1.27-.17-1.84l.17-.2 2.43-2.43a7.25 7.25 0 0 1 7.49-1.73l.5.2.07.02.04-.05 1.95-1.94-.07-.07.07.07a14.87 14.87 0 0 1 14.98-3.67 5.92 5.92 0 0 1 3.87 3.87ZM8.5 157.08l.07.07-.07-.07-1.64 1.63.07.08-.07-.07a1.45 1.45 0 0 1-2.05-2.05l1.64-1.64a1.45 1.45 0 0 1 2.05 2.05Zm22.92-3-.02-.2-.15.15-3.65 3.65-.07.07.07.07 1.08 1.1.08.06.07-.07 1.33-1.34a4.35 4.35 0 0 0 1.26-3.48Zm-16.76-1.86-.06-.05-.07.04-1.35.81-.11.07.09.09 3.76 3.76.1.09.06-.11.8-1.35.05-.07-.06-.06-3.21-3.22Zm8.43-16.27-.51.48-8.65 8.65a1.65 1.65 0 0 0-.2 2.1h.01l.18.22h.01l8.76 8.77c.57.57 1.46.63 2.1.19l.22-.19 8.65-8.65c3.16-3.15 4.3-7.8 2.96-12.06a3.03 3.03 0 0 0-1.98-1.98 11.98 11.98 0 0 0-11.55 2.47Zm-10.2 3.65-.36.33-1.34 1.34-.07.07.07.07 1.09 1.1.07.06.07-.07 3.65-3.65.15-.15-.21-.02c-1.1-.1-2.21.2-3.11.92Zm2.18 22c.5.5.55 1.28.17 1.84l-.18.2-1.63 1.64a1.45 1.45 0 0 1-2.22-1.84l.18-.2 1.63-1.64a1.45 1.45 0 0 1 2.05 0Zm-3.29-3.28c.5.5.56 1.27.17 1.84l-.17.2-4.08 4.08a1.45 1.45 0 0 1-2.22-1.84l.18-.2 4.08-4.09-.07-.07.07.07a1.45 1.45 0 0 1 2.04 0l.07-.07-.07.07Zm17.97-17.97a4.92 4.92 0 1 1-6.94 6.96 4.92 4.92 0 0 1 6.94-6.96Zm-4.9 2.03c-.79.78-.8 2.06 0 2.86.8.8 2.08.8 2.86.01a2.02 2.02 0 0 0-2.87-2.87Zm76.4-7.79c1.6 5.06.37 10.56-3.17 14.46l-.5.52-1.94 1.94-.05.05.03.06a7.26 7.26 0 0 1-1.15 7.58l-.39.42-2.43 2.43c-.5.5-1.28.56-1.84.17l-.2-.17-2.63-2.63-.04-.04-.06.02a4.54 4.54 0 0 1-4-.85l-.36-.34-.52-.51-.09-.1-.06.12-1.43 2.39a1.45 1.45 0 0 1-2.06.45l-.21-.18-6.57-6.56a1.45 1.45 0 0 1-.4-1.2l-.1-.01h.1c.04-.34.2-.66.47-.9l.22-.16 2.38-1.42.11-.07-.09-.09-.51-.52a4.53 4.53 0 0 1-1.28-3.9l.1-.47v-.05l-.03-.04-2.63-2.63c-.5-.5-.56-1.27-.17-1.84l.17-.2 2.43-2.43a7.25 7.25 0 0 1 7.5-1.73l.5.2.06.02.05-.05 1.94-1.94-.07-.07.07.07a14.87 14.87 0 0 1 14.98-3.67 5.92 5.92 0 0 1 3.87 3.87Zm-30.88 22.49.07.07-.07-.07-1.63 1.63.07.08-.07-.07a1.45 1.45 0 1 1-2.05-2.05l1.64-1.64a1.45 1.45 0 0 1 2.04 2.05Zm22.92-3-.02-.2-.15.15-3.65 3.65-.07.07.07.07 1.09 1.1.07.06.07-.07 1.34-1.34a4.35 4.35 0 0 0 1.25-3.48Zm-16.76-1.86-.06-.05-.06.04-1.36.81-.1.07.08.09 3.77 3.76.09.09.06-.11.81-1.35.04-.07-.05-.06-3.22-3.22Zm8.43-16.27-.5.48h-.01l-8.65 8.65a1.65 1.65 0 0 0-.19 2.1l.19.22 8.76 8.77c.58.57 1.46.63 2.1.19h.01l.22-.19 8.65-8.65c3.15-3.15 4.3-7.8 2.95-12.06a3.03 3.03 0 0 0-1.98-1.98 11.98 11.98 0 0 0-11.55 2.47Zm-10.19 3.65-.37.33-1.34 1.34-.07.07.07.07 1.09 1.1.07.06.07-.07 3.65-3.65.16-.15-.22-.02c-1.09-.1-2.2.2-3.11.92Zm2.17 22c.5.5.56 1.28.17 1.84l-.17.2-1.64 1.64a1.45 1.45 0 0 1-2.21-1.84l.17-.2 1.63-1.64a1.45 1.45 0 0 1 2.05 0Zm-3.28-3.28c.5.5.55 1.27.17 1.84l-.18.2-4.08 4.08a1.45 1.45 0 0 1-2.21-1.84l.17-.2 4.08-4.09-.07-.07.07.07a1.45 1.45 0 0 1 2.05 0l.07-.07-.07.07Zm17.96-17.97a4.92 4.92 0 1 1-6.94 6.96 4.92 4.92 0 0 1 6.94-6.96Zm-4.9 2.03a2.02 2.02 0 0 0 2.87 2.87c.78-.78.78-2.06-.01-2.85-.8-.8-2.08-.8-2.86-.02Zm76.4-7.79a14.88 14.88 0 0 1-3.18 14.46l-.5.52-1.94 1.94-.05.05.03.06a7.26 7.26 0 0 1-1.15 7.58l-.38.42-2.43 2.43c-.5.5-1.28.56-1.84.17l-.21-.17-2.63-2.63-.04-.04-.05.02a4.54 4.54 0 0 1-4-.85l-.37-.34-.51-.51-.1-.1-.06.12-1.43 2.39a1.45 1.45 0 0 1-2.06.45l-.2-.18-6.57-6.56a1.45 1.45 0 0 1-.41-1.2l-.1-.01h.1c.04-.34.21-.66.47-.9l.22-.16 2.39-1.42.1-.07-.08-.09-.52-.52a4.53 4.53 0 0 1-1.27-3.9l.1-.47v-.05l-.03-.04-2.63-2.63c-.5-.5-.56-1.27-.17-1.84l.17-.2 2.43-2.43a7.25 7.25 0 0 1 7.49-1.73l.5.2.07.02.04-.05 1.95-1.94-.07-.07.07.07a14.87 14.87 0 0 1 14.98-3.67 5.92 5.92 0 0 1 3.87 3.87Zm-30.88 22.49.07.07-.07-.07-1.64 1.63.07.08-.07-.07a1.45 1.45 0 1 1-2.05-2.05l1.64-1.64a1.45 1.45 0 1 1 2.05 2.05Zm22.92-3-.02-.2-.15.15-3.66 3.65-.07.07.08.07 1.08 1.1.07.06.07-.07 1.34-1.34a4.35 4.35 0 0 0 1.26-3.48Zm-16.77-1.86-.05-.05-.07.04-1.35.81-.11.07.09.09 3.76 3.76.1.09.06-.11.8-1.35.05-.07-.06-.06-3.22-3.22Zm8.43-16.27-.5.48-8.65 8.65a1.65 1.65 0 0 0-.2 2.1h.01l.18.22 8.77 8.77c.57.57 1.46.63 2.1.19l.22-.19 8.65-8.65c3.16-3.15 4.3-7.8 2.96-12.06a3.03 3.03 0 0 0-1.98-1.98 11.98 11.98 0 0 0-11.56 2.47Zm-10.19 3.65-.36.33-1.34 1.34-.08.07.08.07 1.08 1.1.08.06.07-.07 3.65-3.65.15-.15-.21-.02c-1.1-.1-2.21.2-3.12.92Zm2.17 22c.5.5.56 1.28.17 1.84l-.17.2-1.63 1.64a1.45 1.45 0 0 1-2.22-1.84l.17-.2 1.64-1.64a1.45 1.45 0 0 1 2.04 0Zm-3.28-3.28c.5.5.56 1.27.17 1.84l-.17.2-4.08 4.08a1.45 1.45 0 0 1-2.22-1.84l.18-.2 4.08-4.09-.07-.07.07.07a1.45 1.45 0 0 1 2.04 0l.07-.07-.07.07Zm17.97-17.97a4.92 4.92 0 1 1-6.94 6.96 4.92 4.92 0 0 1 6.94-6.96Zm-4.9 2.03c-.79.78-.8 2.06 0 2.86a2.01 2.01 0 1 0 2.85-2.84c-.8-.8-2.08-.8-2.86-.02Zm76.39-7.79c1.6 5.06.37 10.56-3.17 14.46l-.5.52-1.94 1.94-.05.05.03.06a7.26 7.26 0 0 1-1.15 7.58l-.39.42-2.43 2.43c-.5.5-1.28.56-1.84.17l-.2-.17-2.63-2.63-.04-.04-.06.02a4.54 4.54 0 0 1-4-.85l-.37-.34-.5-.51-.1-.1-.06.12-1.44 2.39a1.45 1.45 0 0 1-2.05.45l-.21-.18-6.57-6.56a1.44 1.44 0 0 1-.4-1.2l-.1-.01h.1c.03-.34.2-.66.47-.9l.22-.16 2.38-1.42.11-.07-.09-.09-.51-.52a4.54 4.54 0 0 1-1.28-3.9l.1-.47v-.05l-.03-.04-2.63-2.63c-.5-.5-.56-1.27-.17-1.84l.17-.2 2.43-2.43a7.25 7.25 0 0 1 7.5-1.73l.5.2.06.02.05-.05 1.94-1.94-.07-.07.07.07a14.87 14.87 0 0 1 14.98-3.67 5.92 5.92 0 0 1 3.87 3.87Zm-30.88 22.49.07.07-.07-.07-1.64 1.63.07.08-.07-.07a1.45 1.45 0 0 1-2.05-2.05l1.65-1.64a1.45 1.45 0 0 1 2.04 2.05Zm22.92-3-.02-.2-.15.15-3.65 3.65-.07.07.07.07 1.09 1.1.07.06.07-.07 1.33-1.34a4.35 4.35 0 0 0 1.26-3.48Zm-16.76-1.86-.06-.05-.06.04-1.36.81-.1.07.08.09 3.76 3.76.1.09.06-.11.81-1.35.04-.07-.05-.06-3.22-3.22Zm8.43-16.27-.51.48-8.65 8.65a1.65 1.65 0 0 0-.19 2.1l.19.22 8.76 8.77c.57.57 1.46.63 2.1.19h.01l.21-.19h.01l8.65-8.65c3.15-3.15 4.3-7.8 2.95-12.06a3.02 3.02 0 0 0-1.98-1.98 11.98 11.98 0 0 0-11.55 2.47Zm-10.2 3.65-.36.33-1.34 1.34-.07.07.07.07 1.09 1.1.07.06.07-.07 3.65-3.65.15-.15-.2-.02c-1.1-.1-2.22.2-3.12.92Zm2.18 22c.5.5.56 1.28.17 1.84l-.17.2-1.64 1.64a1.45 1.45 0 0 1-2.22-1.84l.18-.2 1.63-1.64a1.45 1.45 0 0 1 2.05 0Zm-3.28-3.28c.5.5.55 1.27.17 1.84l-.18.2-4.08 4.08a1.45 1.45 0 0 1-2.21-1.84l.17-.2 4.08-4.09-.07-.07.07.07a1.45 1.45 0 0 1 2.05 0l.07-.07-.07.07Zm17.96-17.97a4.92 4.92 0 1 1-6.94 6.96 4.92 4.92 0 0 1 6.94-6.96Zm-4.9 2.03a2.02 2.02 0 0 0 0 2.86 2.02 2.02 0 1 0 2.85-2.85 2 2 0 0 0-2.85 0ZM39.39 196.45a14.87 14.87 0 0 1-3.17 14.46l-.5.52-1.95 1.95-.04.05.02.06a7.26 7.26 0 0 1-1.14 7.58l-.4.42-2.42 2.42c-.5.5-1.28.56-1.84.18l-.21-.18-2.63-2.63-.04-.04-.05.02a4.54 4.54 0 0 1-4-.85l-.37-.33-.51-.52-.1-.09-.06.11-1.43 2.4a1.45 1.45 0 0 1-2.06.44l-.2-.17-6.57-6.57a1.45 1.45 0 0 1-.41-1.2h-.1.1c.04-.35.21-.67.47-.9l.23-.16 2.38-1.43.11-.06-.09-.1-.52-.51a4.53 4.53 0 0 1-1.27-3.9l.1-.47v-.05l-.03-.04-2.63-2.63c-.5-.5-.56-1.28-.17-1.84l.17-.21 2.43-2.43a7.25 7.25 0 0 1 7.49-1.73l.5.2.07.02.04-.04 1.95-1.95-.07-.07.07.07a14.87 14.87 0 0 1 14.98-3.66 5.92 5.92 0 0 1 3.87 3.86ZM8.5 218.95l.07.06-.07-.07-1.64 1.64.07.07-.07-.07a1.45 1.45 0 0 1-2.05-2.05l1.64-1.63a1.45 1.45 0 1 1 2.05 2.04Zm22.92-3-.02-.2-.15.14-3.65 3.66-.07.07.07.07 1.08 1.09.08.07.07-.07 1.33-1.34a4.35 4.35 0 0 0 1.26-3.49Zm-16.76-1.86-.06-.06-.07.04-1.35.81-.11.07.09.1 3.76 3.75.1.1.06-.12.8-1.35.05-.07-.06-.05-3.21-3.22Zm8.43-16.27-.51.48-8.65 8.64a1.65 1.65 0 0 0-.2 2.1l.01.01.18.22h.01l8.76 8.76c.57.57 1.46.64 2.1.2v-.01l.22-.18 8.65-8.65a11.98 11.98 0 0 0 2.96-12.07 3.03 3.03 0 0 0-1.98-1.98 11.98 11.98 0 0 0-11.55 2.48Zm-10.2 3.65-.36.32-1.34 1.34-.07.08.07.07 1.09 1.09.07.07.07-.07 3.65-3.66.15-.15-.21-.02c-1.1-.1-2.21.2-3.11.93Zm2.18 22c.5.5.55 1.27.17 1.83l-.18.21-1.63 1.64a1.45 1.45 0 0 1-2.22-1.84l.18-.21 1.63-1.64a1.45 1.45 0 0 1 2.05 0Zm-3.29-3.3c.5.51.56 1.29.17 1.85l-.17.2-4.08 4.09a1.45 1.45 0 0 1-2.22-1.84l.18-.21 4.08-4.08-.07-.07.07.07a1.45 1.45 0 0 1 2.04 0l.07-.07-.07.07Zm17.97-17.95a4.92 4.92 0 1 1-6.94 6.96 4.92 4.92 0 0 1 6.94-6.97Zm-4.9 2.03c-.79.78-.8 2.06 0 2.86.8.8 2.08.8 2.86.01a2.02 2.02 0 0 0-2.87-2.87Zm76.4-7.8c1.6 5.06.37 10.56-3.17 14.46l-.5.52-1.94 1.95-.05.05.03.06a7.26 7.26 0 0 1-1.15 7.58l-.39.42-2.43 2.42c-.5.5-1.28.56-1.84.18l-.2-.18-2.63-2.63-.04-.04-.06.02a4.54 4.54 0 0 1-4-.85l-.36-.33-.52-.52-.09-.09-.06.11-1.43 2.4a1.45 1.45 0 0 1-2.06.44l-.21-.17-6.57-6.57a1.45 1.45 0 0 1-.4-1.2h-.1.1c.04-.35.2-.67.47-.9l.22-.16 2.38-1.43.11-.06-.09-.1-.51-.51a4.53 4.53 0 0 1-1.28-3.9l.1-.47v-.05l-.03-.04-2.63-2.63c-.5-.5-.56-1.28-.17-1.84l.17-.21 2.43-2.43a7.25 7.25 0 0 1 7.5-1.73l.5.2.06.02.05-.04 1.94-1.95-.07-.07.07.07a14.87 14.87 0 0 1 14.98-3.66 5.92 5.92 0 0 1 3.87 3.86Zm-30.88 22.5.07.06-.07-.07-1.63 1.64.07.07-.07-.07a1.45 1.45 0 1 1-2.05-2.05l1.64-1.63a1.45 1.45 0 1 1 2.04 2.04Zm22.92-3-.02-.2-.15.14-3.65 3.66-.07.07.07.07 1.09 1.09.07.07.07-.07 1.34-1.34a4.35 4.35 0 0 0 1.25-3.49Zm-16.76-1.86-.06-.06-.06.04-1.36.81-.1.07.08.1 3.77 3.75.09.1.06-.12.81-1.35.04-.07-.05-.05-3.22-3.22Zm8.43-16.27-.5.48h-.01l-8.65 8.64a1.65 1.65 0 0 0-.19 2.1v.01l.19.22 8.76 8.76c.58.57 1.46.64 2.1.2l.01-.01.22-.18 8.65-8.65a11.98 11.98 0 0 0 2.95-12.07 3.03 3.03 0 0 0-1.98-1.98 11.98 11.98 0 0 0-11.55 2.48Zm-10.19 3.65-.37.32-1.34 1.34-.07.08.07.07 1.09 1.09.07.07.07-.07 3.65-3.66.16-.15-.22-.02a4.3 4.3 0 0 0-3.11.93Zm2.17 22c.5.5.56 1.27.17 1.83l-.17.21-1.64 1.64a1.45 1.45 0 0 1-2.21-1.84l.17-.21 1.63-1.64a1.45 1.45 0 0 1 2.05 0Zm-3.28-3.3c.5.51.55 1.29.17 1.85l-.18.2-4.08 4.09a1.45 1.45 0 0 1-2.21-1.84l.17-.21 4.08-4.08-.07-.07.07.07a1.45 1.45 0 0 1 2.05 0l.07-.07-.07.07Zm17.96-17.95a4.92 4.92 0 1 1-6.94 6.96 4.92 4.92 0 0 1 6.94-6.97Zm-4.9 2.03a2.02 2.02 0 0 0 2.87 2.87 2.03 2.03 0 0 0-2.87-2.87Zm76.4-7.8a14.88 14.88 0 0 1-3.18 14.46l-.5.52-1.94 1.95-.05.05.03.06a7.26 7.26 0 0 1-1.15 7.58l-.38.42-2.43 2.42c-.5.5-1.28.56-1.84.18l-.21-.18-2.63-2.63-.04-.04-.05.02a4.54 4.54 0 0 1-4-.85l-.37-.33-.51-.52-.1-.09-.06.11-1.43 2.4a1.45 1.45 0 0 1-2.06.44l-.2-.17-6.57-6.57a1.45 1.45 0 0 1-.41-1.2h-.1.1c.04-.35.21-.67.47-.9l.22-.16 2.39-1.43.1-.06-.08-.1-.52-.51a4.53 4.53 0 0 1-1.27-3.9l.1-.47v-.05l-.03-.04-2.63-2.63c-.5-.5-.56-1.28-.17-1.84l.17-.21 2.43-2.43a7.25 7.25 0 0 1 7.49-1.73l.5.2.07.02.04-.04 1.95-1.95-.07-.07.07.07a14.87 14.87 0 0 1 14.98-3.66 5.92 5.92 0 0 1 3.87 3.86Zm-30.88 22.5.07.06-.07-.07-1.64 1.64.07.07-.07-.07a1.45 1.45 0 1 1-2.05-2.05l1.64-1.63a1.45 1.45 0 1 1 2.05 2.04Zm22.92-3-.02-.2-.15.14-3.66 3.66-.07.07.08.07 1.08 1.09.07.07.07-.07 1.34-1.34a4.35 4.35 0 0 0 1.26-3.49Zm-16.77-1.86-.05-.06-.07.04-1.35.81-.11.07.09.1 3.76 3.75.1.1.06-.12.8-1.35.05-.07-.06-.05-3.22-3.22Zm8.43-16.27-.5.48-8.65 8.64a1.65 1.65 0 0 0-.2 2.1l.01.01.18.22 8.77 8.76c.57.57 1.46.64 2.1.2v-.01l.22-.18 8.65-8.65a11.98 11.98 0 0 0 2.96-12.07 3.03 3.03 0 0 0-1.98-1.98 11.98 11.98 0 0 0-11.56 2.48Zm-10.19 3.65-.36.32-1.34 1.34-.08.08.08.07 1.08 1.09.08.07.07-.07 3.65-3.66.15-.15-.21-.02c-1.1-.1-2.21.2-3.12.93Zm2.17 22c.5.5.56 1.27.17 1.83l-.17.21-1.63 1.64a1.45 1.45 0 0 1-2.22-1.84l.17-.21 1.64-1.64a1.45 1.45 0 0 1 2.04 0Zm-3.28-3.3c.5.51.56 1.29.17 1.85l-.17.2-4.08 4.09a1.45 1.45 0 0 1-2.22-1.84l.18-.21 4.08-4.08-.07-.07.07.07a1.45 1.45 0 0 1 2.04 0l.07-.07-.07.07Zm17.97-17.95a4.92 4.92 0 1 1-6.94 6.96 4.92 4.92 0 0 1 6.94-6.97Zm-4.9 2.03c-.79.78-.8 2.06 0 2.86a2.01 2.01 0 1 0 2.85-2.85c-.8-.8-2.08-.8-2.86-.01Zm76.39-7.8c1.6 5.06.37 10.56-3.17 14.46l-.5.52-1.94 1.95-.05.05.03.06a7.26 7.26 0 0 1-1.15 7.58l-.39.42-2.43 2.42c-.5.5-1.28.56-1.84.18l-.2-.18-2.63-2.63-.04-.04-.06.02a4.54 4.54 0 0 1-4-.85l-.37-.33-.5-.52-.1-.09-.06.11-1.44 2.4a1.45 1.45 0 0 1-2.05.44l-.21-.17-6.57-6.57a1.44 1.44 0 0 1-.4-1.2h-.1.1c.03-.35.2-.67.47-.9l.22-.16 2.38-1.43.11-.06-.09-.1-.51-.51a4.53 4.53 0 0 1-1.28-3.9l.1-.47v-.05l-.03-.04-2.63-2.63c-.5-.5-.56-1.28-.17-1.84l.17-.21 2.43-2.43a7.25 7.25 0 0 1 7.5-1.73l.5.2.06.02.05-.04 1.94-1.95-.07-.07.07.07a14.87 14.87 0 0 1 14.98-3.66 5.92 5.92 0 0 1 3.87 3.86Zm-30.88 22.5.07.06-.07-.07-1.64 1.64.07.07-.07-.07a1.45 1.45 0 0 1-2.05-2.05l1.65-1.63a1.45 1.45 0 1 1 2.04 2.04Zm22.92-3-.02-.2-.15.14-3.65 3.66-.07.07.07.07 1.09 1.09.07.07.07-.07 1.33-1.34a4.35 4.35 0 0 0 1.26-3.49Zm-16.76-1.86-.06-.06-.06.04-1.36.81-.1.07.08.1 3.76 3.75.1.1.06-.12.81-1.35.04-.07-.05-.05-3.22-3.22Zm8.43-16.27-.51.48-8.65 8.64a1.65 1.65 0 0 0-.19 2.1v.01l.19.22 8.76 8.76c.57.57 1.46.64 2.1.2l.01-.01.21-.18h.01l8.65-8.65a11.98 11.98 0 0 0 2.95-12.07 3.03 3.03 0 0 0-1.98-1.98 11.98 11.98 0 0 0-11.55 2.48Zm-10.2 3.65-.36.32-1.34 1.34-.07.08.07.07 1.09 1.09.07.07.07-.07 3.65-3.66.15-.15-.2-.02a4.3 4.3 0 0 0-3.12.93Zm2.18 22c.5.5.56 1.27.17 1.83l-.17.21-1.64 1.64a1.45 1.45 0 0 1-2.22-1.84l.18-.21 1.63-1.64a1.45 1.45 0 0 1 2.05 0Zm-3.28-3.3c.5.51.55 1.29.17 1.85l-.18.2-4.08 4.09a1.45 1.45 0 0 1-2.21-1.84l.17-.21 4.08-4.08-.07-.07.07.07a1.45 1.45 0 0 1 2.05 0l.07-.07-.07.07Zm17.96-17.95a4.92 4.92 0 1 1-6.94 6.96 4.92 4.92 0 0 1 6.94-6.97Zm-4.9 2.03a2.02 2.02 0 0 0 0 2.86 2.02 2.02 0 1 0 2.85-2.85 2 2 0 0 0-2.85-.01ZM39.39 258.32a14.86 14.86 0 0 1-3.17 14.45l-.5.53-1.95 1.94-.04.05.02.06a7.26 7.26 0 0 1-1.14 7.58l-.4.42-2.42 2.43c-.5.5-1.28.56-1.84.17l-.21-.17-2.63-2.63-.04-.04-.05.01a4.54 4.54 0 0 1-4-.85l-.37-.33-.51-.51-.1-.1-.06.12-1.43 2.38a1.45 1.45 0 0 1-2.06.46l-.2-.18-6.57-6.56a1.45 1.45 0 0 1-.41-1.2l-.1-.02.1.02c.04-.36.21-.68.47-.9l.23-.17 2.38-1.42.11-.07-.09-.1-.52-.5a4.53 4.53 0 0 1-1.27-3.91l.1-.47v-.05l-.03-.04-2.63-2.63c-.5-.5-.56-1.27-.17-1.84l.17-.2 2.43-2.43a7.25 7.25 0 0 1 7.49-1.73l.5.2.07.02.04-.05 1.95-1.94-.07-.07.07.07a14.87 14.87 0 0 1 14.98-3.67 5.92 5.92 0 0 1 3.87 3.87ZM8.5 280.8l.07.07-.07-.07-1.64 1.63.07.07-.07-.07a1.45 1.45 0 0 1-2.05-2.05l1.64-1.63a1.45 1.45 0 0 1 2.05 2.05Zm22.92-3-.02-.2-.15.15-3.65 3.65-.07.07.07.07 1.08 1.09.08.07.07-.07 1.33-1.34a4.35 4.35 0 0 0 1.26-3.48Zm-16.76-1.86-.06-.05-.07.04-1.35.8-.11.07.09.1 3.76 3.76.1.09.06-.11.8-1.36.05-.06-.06-.06-3.21-3.22Zm8.43-16.27-.51.48-8.65 8.65a1.65 1.65 0 0 0-.2 2.1h.01l.18.22h.01l8.76 8.77c.57.57 1.46.63 2.1.19l.22-.19 8.65-8.65c3.16-3.15 4.3-7.8 2.96-12.06a3.02 3.02 0 0 0-1.98-1.98 11.98 11.98 0 0 0-11.55 2.47Zm-10.2 3.65-.36.33L11.2 265l-.07.07.07.07 1.09 1.09.07.07.07-.07 3.65-3.65.15-.15-.21-.02c-1.1-.1-2.21.2-3.11.92Zm2.18 22c.5.5.55 1.28.17 1.84l-.18.2-1.63 1.64a1.45 1.45 0 0 1-2.22-1.84l.18-.2 1.63-1.64a1.45 1.45 0 0 1 2.05 0Zm-3.29-3.29c.5.5.56 1.28.17 1.84l-.17.21-4.08 4.08a1.45 1.45 0 0 1-2.22-1.84l.18-.2 4.08-4.09-.07-.07.07.07a1.45 1.45 0 0 1 2.04 0l.07-.07-.07.07Zm17.97-17.96a4.92 4.92 0 1 1-6.94 6.96 4.92 4.92 0 0 1 6.94-6.96Zm-4.9 2.03c-.79.78-.8 2.06 0 2.86.8.8 2.08.8 2.86.01a2.02 2.02 0 0 0-2.87-2.87Zm76.4-7.78c1.6 5.05.37 10.56-3.17 14.45l-.5.53-1.94 1.94-.05.05.03.06a7.26 7.26 0 0 1-1.15 7.58l-.39.42-2.43 2.43c-.5.5-1.28.56-1.84.17l-.2-.17-2.63-2.63-.04-.04-.06.01a4.54 4.54 0 0 1-4-.85l-.36-.33-.52-.51-.09-.1-.06.12-1.43 2.38a1.45 1.45 0 0 1-2.06.46l-.21-.18-6.57-6.56a1.45 1.45 0 0 1-.4-1.2l-.1-.02.1.02c.04-.36.2-.68.47-.9l.22-.17 2.38-1.42.11-.07-.09-.1-.51-.5a4.53 4.53 0 0 1-1.28-3.91l.1-.47v-.05l-.03-.04-2.63-2.63c-.5-.5-.56-1.27-.17-1.84l.17-.2 2.43-2.43a7.25 7.25 0 0 1 7.5-1.73l.5.2.06.02.05-.05 1.94-1.94-.07-.07.07.07a14.87 14.87 0 0 1 14.98-3.67 5.92 5.92 0 0 1 3.87 3.87ZM70.37 280.8l.07.07-.07-.07-1.63 1.63.07.07-.07-.07a1.45 1.45 0 1 1-2.05-2.05l1.64-1.63a1.45 1.45 0 0 1 2.04 2.05Zm22.92-3-.02-.2-.15.15-3.65 3.65-.07.07.07.07 1.09 1.09.07.07.07-.07 1.34-1.34a4.35 4.35 0 0 0 1.25-3.48Zm-16.76-1.86-.06-.05-.06.04-1.36.8-.1.07.08.1 3.77 3.76.09.09.06-.11.81-1.36.04-.06-.05-.06-3.22-3.22Zm8.43-16.27-.5.48h-.01l-8.65 8.65a1.65 1.65 0 0 0-.19 2.1l.19.22 8.76 8.77c.58.57 1.46.63 2.1.19h.01l.22-.19 8.65-8.65c3.15-3.15 4.3-7.8 2.95-12.06a3.02 3.02 0 0 0-1.98-1.98 11.98 11.98 0 0 0-11.55 2.47Zm-10.19 3.65-.37.33-1.34 1.34-.07.07.07.07 1.09 1.09.07.07.07-.07 3.65-3.65.16-.15-.22-.02c-1.09-.1-2.2.2-3.11.92Zm2.17 22c.5.5.56 1.28.17 1.84l-.17.2L75.3 289a1.45 1.45 0 0 1-2.21-1.84l.17-.2 1.63-1.64a1.45 1.45 0 0 1 2.05 0Zm-3.28-3.29c.5.5.55 1.28.17 1.84l-.18.21-4.08 4.08a1.45 1.45 0 0 1-2.21-1.84l.17-.2 4.08-4.09-.07-.07.07.07a1.45 1.45 0 0 1 2.05 0l.07-.07-.07.07Zm17.96-17.96a4.92 4.92 0 1 1-6.94 6.96 4.92 4.92 0 0 1 6.94-6.96Zm-4.9 2.03a2.02 2.02 0 0 0 2.87 2.87c.78-.78.78-2.06-.01-2.86-.8-.8-2.08-.79-2.86 0Zm76.4-7.78a14.86 14.86 0 0 1-3.18 14.45l-.5.53-1.94 1.94-.05.05.03.06a7.26 7.26 0 0 1-1.15 7.58l-.38.42-2.43 2.43c-.5.5-1.28.56-1.84.17l-.21-.17-2.63-2.63-.04-.04-.05.01a4.54 4.54 0 0 1-4-.85l-.37-.33-.51-.51-.1-.1-.06.12-1.43 2.38a1.45 1.45 0 0 1-2.06.46l-.2-.18-6.57-6.56a1.45 1.45 0 0 1-.41-1.2l-.1-.02.1.02c.04-.36.21-.68.47-.9l.22-.17 2.39-1.42.1-.07-.08-.1-.52-.5a4.53 4.53 0 0 1-1.27-3.91l.1-.47v-.05l-.03-.04-2.63-2.63c-.5-.5-.56-1.27-.17-1.84l.17-.2 2.43-2.43a7.25 7.25 0 0 1 7.49-1.73l.5.2.07.02.04-.05 1.95-1.94-.07-.07.07.07a14.87 14.87 0 0 1 14.98-3.67 5.92 5.92 0 0 1 3.87 3.87Zm-30.88 22.49.07.07-.07-.07-1.64 1.63.07.07-.07-.07a1.45 1.45 0 1 1-2.05-2.05l1.64-1.63a1.45 1.45 0 0 1 2.05 2.05Zm22.92-3-.02-.2-.15.15-3.66 3.65-.07.07.08.07 1.08 1.09.07.07.07-.07 1.34-1.34a4.35 4.35 0 0 0 1.26-3.48Zm-16.77-1.86-.05-.05-.07.04-1.35.8-.11.07.09.1 3.76 3.76.1.09.06-.11.8-1.36.05-.06-.06-.06-3.22-3.22Zm8.43-16.27-.5.48-8.65 8.65a1.65 1.65 0 0 0-.2 2.1h.01l.18.22 8.77 8.77c.57.57 1.46.63 2.1.19l.22-.19 8.65-8.65c3.16-3.15 4.3-7.8 2.96-12.06a3.02 3.02 0 0 0-1.98-1.98 11.98 11.98 0 0 0-11.56 2.47Zm-10.19 3.65-.36.33-1.34 1.34-.08.07.08.07 1.08 1.09.08.07.07-.07 3.65-3.65.15-.15-.21-.02c-1.1-.1-2.21.2-3.12.92Zm2.17 22c.5.5.56 1.28.17 1.84l-.17.2-1.63 1.64a1.45 1.45 0 0 1-2.22-1.84l.17-.2 1.64-1.64a1.45 1.45 0 0 1 2.04 0Zm-3.28-3.29c.5.5.56 1.28.17 1.84l-.17.21-4.08 4.08a1.45 1.45 0 0 1-2.22-1.84l.18-.2 4.08-4.09-.07-.07.07.07a1.45 1.45 0 0 1 2.04 0l.07-.07-.07.07Zm17.97-17.96a4.92 4.92 0 1 1-6.94 6.96 4.92 4.92 0 0 1 6.94-6.96Zm-4.9 2.03c-.79.78-.8 2.06 0 2.86a2.01 2.01 0 1 0 2.85-2.85c-.8-.8-2.08-.79-2.86 0Zm76.39-7.79c1.6 5.05.37 10.56-3.17 14.45l-.5.53-1.94 1.94-.05.05.03.06a7.26 7.26 0 0 1-1.15 7.58l-.39.42-2.43 2.43c-.5.5-1.28.56-1.84.17l-.2-.17-2.63-2.63-.04-.04-.06.01a4.54 4.54 0 0 1-4-.85l-.37-.33-.5-.51-.1-.1-.06.12-1.44 2.38a1.45 1.45 0 0 1-2.05.46l-.21-.18-6.57-6.56a1.44 1.44 0 0 1-.4-1.2l-.1-.02.1.02c.03-.36.2-.68.47-.9l.22-.17 2.38-1.42.11-.07-.09-.1-.51-.5a4.54 4.54 0 0 1-1.28-3.91l.1-.47v-.05l-.03-.04-2.63-2.63c-.5-.5-.56-1.27-.17-1.84l.17-.2 2.43-2.43a7.25 7.25 0 0 1 7.5-1.73l.5.2.06.02.05-.05 1.94-1.94-.07-.07.07.07a14.87 14.87 0 0 1 14.98-3.67 5.92 5.92 0 0 1 3.87 3.87ZM194.1 280.8l.07.07-.07-.07-1.64 1.63.07.07-.07-.07a1.45 1.45 0 0 1-2.05-2.05l1.65-1.63a1.45 1.45 0 0 1 2.04 2.05Zm22.92-3-.02-.2-.15.15-3.65 3.65-.07.07.07.07 1.09 1.09.07.07.07-.07 1.33-1.34a4.35 4.35 0 0 0 1.26-3.48Zm-16.76-1.86-.06-.05-.06.04-1.36.8-.1.07.08.1 3.76 3.76.1.09.06-.11.81-1.36.04-.06-.05-.06-3.22-3.22Zm8.43-16.27-.51.48-8.65 8.65a1.65 1.65 0 0 0-.19 2.1l.19.22 8.76 8.77c.57.57 1.46.63 2.1.19h.01l.21-.19h.01l8.65-8.65c3.15-3.15 4.3-7.8 2.95-12.06a3.02 3.02 0 0 0-1.98-1.98 11.98 11.98 0 0 0-11.55 2.47Zm-10.2 3.65-.36.33-1.34 1.34-.07.07.07.07 1.09 1.09.07.07.07-.07 3.65-3.65.15-.15-.2-.02c-1.1-.1-2.22.2-3.12.92Zm2.18 22c.5.5.56 1.28.17 1.84l-.17.2-1.64 1.64a1.45 1.45 0 0 1-2.22-1.84l.18-.2 1.63-1.64a1.45 1.45 0 0 1 2.05 0Zm-3.28-3.29c.5.5.55 1.28.17 1.84l-.18.21-4.08 4.08a1.45 1.45 0 0 1-2.21-1.84l.17-.2 4.08-4.09-.07-.07.07.07a1.45 1.45 0 0 1 2.05 0l.07-.07-.07.07Zm17.96-17.96a4.92 4.92 0 1 1-6.94 6.96 4.92 4.92 0 0 1 6.94-6.96Zm-4.9 2.03a2.02 2.02 0 0 0 0 2.86 2.02 2.02 0 1 0 2.85-2.85 2 2 0 0 0-2.85 0ZM39.39 320.18a14.87 14.87 0 0 1-3.17 14.46l-.5.52-1.95 1.95-.04.04.02.07a7.26 7.26 0 0 1-1.14 7.57l-.4.42-2.42 2.43c-.5.5-1.28.56-1.84.17l-.21-.17-2.63-2.63-.04-.04-.05.02a4.54 4.54 0 0 1-4-.85l-.37-.33-.51-.52-.1-.09-.06.11-1.43 2.39a1.44 1.44 0 0 1-2.06.45l-.2-.17-6.57-6.57a1.45 1.45 0 0 1-.41-1.2l-.1-.01.1.01c.04-.35.21-.67.47-.9l.23-.16 2.38-1.43.11-.07-.09-.09-.52-.51a4.53 4.53 0 0 1-1.27-3.9l.1-.47v-.06l-.03-.03-2.63-2.63c-.5-.5-.56-1.28-.17-1.84l.17-.21 2.43-2.43a7.25 7.25 0 0 1 7.49-1.73l.5.2.07.02.04-.04 1.95-1.95-.07-.07.07.07a14.87 14.87 0 0 1 14.98-3.67 5.92 5.92 0 0 1 3.87 3.87ZM8.5 342.68l.07.06-.07-.07-1.64 1.64.07.07-.07-.07a1.45 1.45 0 0 1-2.05-2.05l1.64-1.63a1.45 1.45 0 1 1 2.05 2.04Zm22.92-3-.02-.21-.15.15-3.65 3.65-.07.08.07.06 1.08 1.1.08.06.07-.07 1.33-1.33a4.35 4.35 0 0 0 1.26-3.49Zm-16.76-1.86-.06-.06-.07.04-1.35.81-.11.07.09.09 3.76 3.76.1.1.06-.12.8-1.35.05-.07-.06-.05-3.21-3.22Zm8.43-16.27-.51.48-8.65 8.64a1.65 1.65 0 0 0-.2 2.1l.01.01.18.22h.01l8.76 8.76c.57.57 1.46.64 2.1.2v-.01l.22-.18 8.65-8.65a11.98 11.98 0 0 0 2.96-12.07 3.03 3.03 0 0 0-1.98-1.98 11.98 11.98 0 0 0-11.55 2.48Zm-10.2 3.65-.36.32-1.34 1.34-.07.07.07.07 1.09 1.1.07.06.07-.07 3.65-3.65.15-.15-.21-.02c-1.1-.1-2.21.2-3.11.93Zm2.18 22c.5.5.55 1.27.17 1.83l-.18.21-1.63 1.63a1.45 1.45 0 0 1-2.22-1.84l.18-.2 1.63-1.64a1.45 1.45 0 0 1 2.05 0Zm-3.29-3.3c.5.5.56 1.29.17 1.85l-.17.2-4.08 4.09a1.45 1.45 0 0 1-2.22-1.84l.18-.21 4.08-4.08-.07-.07.07.07a1.45 1.45 0 0 1 2.04 0l.07-.07-.07.07Zm17.97-17.96a4.91 4.91 0 1 1-6.94 6.97 4.91 4.91 0 0 1 6.94-6.97Zm-4.9 2.04c-.79.78-.8 2.06 0 2.86a2.02 2.02 0 1 0 2.85-2.85c-.8-.8-2.08-.8-2.86-.01Zm76.4-7.8c1.6 5.06.37 10.56-3.17 14.46l-.5.52-1.94 1.95-.05.04.03.07a7.26 7.26 0 0 1-1.15 7.57l-.39.42-2.43 2.43c-.5.5-1.28.56-1.84.17l-.2-.17-2.63-2.63-.04-.04-.06.02a4.54 4.54 0 0 1-4-.85l-.36-.33-.52-.52-.09-.09-.06.11-1.43 2.39a1.45 1.45 0 0 1-2.06.45l-.21-.17-6.57-6.57a1.45 1.45 0 0 1-.4-1.2l-.1-.01.1.01c.04-.35.2-.67.47-.9l.22-.16 2.38-1.43.11-.07-.09-.09-.51-.51a4.53 4.53 0 0 1-1.28-3.9l.1-.47v-.06l-.03-.03-2.63-2.63c-.5-.5-.56-1.28-.17-1.84l.17-.21 2.43-2.43a7.25 7.25 0 0 1 7.5-1.73l.5.2.06.02.05-.04 1.94-1.95-.07-.07.07.07a14.87 14.87 0 0 1 14.98-3.67 5.92 5.92 0 0 1 3.87 3.87Zm-30.88 22.5.07.06-.07-.07-1.63 1.64.07.07-.07-.07a1.45 1.45 0 1 1-2.05-2.05l1.64-1.63a1.45 1.45 0 1 1 2.04 2.04Zm22.92-3-.02-.21-.15.15-3.65 3.65-.07.08.07.06 1.09 1.1.07.06.07-.07 1.34-1.33a4.35 4.35 0 0 0 1.25-3.49Zm-16.76-1.86-.06-.06-.06.04-1.36.81-.1.07.08.09 3.77 3.76.09.1.06-.12.81-1.35.04-.07-.05-.05-3.22-3.22Zm8.43-16.27-.5.48h-.01l-8.65 8.64a1.65 1.65 0 0 0-.19 2.1v.01l.19.22 8.76 8.76c.58.57 1.46.64 2.1.2l.01-.01.22-.18 8.65-8.65a11.98 11.98 0 0 0 2.95-12.07 3.03 3.03 0 0 0-1.98-1.98 11.98 11.98 0 0 0-11.55 2.48Zm-10.19 3.65-.37.32-1.34 1.34-.07.07.07.07 1.09 1.1.07.06.07-.07 3.65-3.65.16-.15-.22-.02a4.3 4.3 0 0 0-3.11.93Zm2.17 22c.5.5.56 1.27.17 1.83l-.17.21-1.64 1.63a1.45 1.45 0 0 1-2.21-1.84l.17-.2 1.63-1.64a1.45 1.45 0 0 1 2.05 0Zm-3.28-3.3c.5.5.55 1.29.17 1.85l-.18.2-4.08 4.09a1.45 1.45 0 0 1-2.21-1.84l.17-.21 4.08-4.08-.07-.07.07.07a1.45 1.45 0 0 1 2.05 0l.07-.07-.07.07Zm17.96-17.96a4.91 4.91 0 1 1-6.94 6.97 4.91 4.91 0 0 1 6.94-6.97Zm-4.9 2.04a2.03 2.03 0 0 0 0 2.86 2.02 2.02 0 1 0 2.85-2.85 2 2 0 0 0-2.85-.01Zm76.4-7.8a14.88 14.88 0 0 1-3.18 14.46l-.5.52-1.94 1.95-.05.04.03.07a7.26 7.26 0 0 1-1.15 7.57l-.38.42-2.43 2.43c-.5.5-1.28.56-1.84.17l-.21-.17-2.63-2.63-.04-.04-.05.02a4.54 4.54 0 0 1-4-.85l-.37-.33-.51-.52-.1-.09-.06.11-1.43 2.39a1.45 1.45 0 0 1-2.06.45l-.2-.17-6.57-6.57a1.45 1.45 0 0 1-.41-1.2l-.1-.01.1.01c.04-.35.21-.67.47-.9l.22-.16 2.39-1.43.1-.07-.08-.09-.52-.51a4.53 4.53 0 0 1-1.27-3.9l.1-.47v-.06l-.03-.03-2.63-2.63c-.5-.5-.56-1.28-.17-1.84l.17-.21 2.43-2.43a7.25 7.25 0 0 1 7.49-1.73l.5.2.07.02.04-.04 1.95-1.95-.07-.07.07.07a14.87 14.87 0 0 1 14.98-3.67 5.92 5.92 0 0 1 3.87 3.87Zm-30.88 22.5.07.06-.07-.07-1.64 1.64.07.07-.07-.07a1.45 1.45 0 1 1-2.05-2.05l1.64-1.63a1.45 1.45 0 1 1 2.05 2.04Zm22.92-3-.02-.21-.15.15-3.66 3.65-.07.08.08.06 1.08 1.1.07.06.07-.07 1.34-1.33a4.35 4.35 0 0 0 1.26-3.49Zm-16.77-1.86-.05-.06-.07.04-1.35.81-.11.07.09.09 3.76 3.76.1.1.06-.12.8-1.35.05-.07-.06-.05-3.22-3.22Zm8.43-16.27-.5.48-8.65 8.64a1.65 1.65 0 0 0-.2 2.1l.01.01.18.22 8.77 8.76c.57.57 1.46.64 2.1.2v-.01l.22-.18 8.65-8.65a11.98 11.98 0 0 0 2.96-12.07 3.03 3.03 0 0 0-1.98-1.98 11.98 11.98 0 0 0-11.56 2.48Zm-10.19 3.65-.36.32-1.34 1.34-.08.07.08.07 1.08 1.1.08.06.07-.07 3.65-3.65.15-.15-.21-.02c-1.1-.1-2.21.2-3.12.93Zm2.17 22c.5.5.56 1.27.17 1.83l-.17.21-1.63 1.63a1.45 1.45 0 0 1-2.22-1.84l.17-.2 1.64-1.64a1.45 1.45 0 0 1 2.04 0Zm-3.28-3.3c.5.5.56 1.29.17 1.85l-.17.2-4.08 4.09a1.45 1.45 0 0 1-2.22-1.84l.18-.21 4.08-4.08-.07-.07.07.07a1.45 1.45 0 0 1 2.04 0l.07-.07-.07.07Zm17.97-17.96a4.91 4.91 0 1 1-6.94 6.97 4.91 4.91 0 0 1 6.94-6.97Zm-4.9 2.04c-.79.78-.8 2.06 0 2.86a2.02 2.02 0 1 0 2.85-2.85c-.8-.8-2.08-.8-2.86-.01Zm76.39-7.8c1.6 5.06.37 10.56-3.17 14.46l-.5.52-1.94 1.95-.05.04.03.07a7.26 7.26 0 0 1-1.15 7.57l-.39.42-2.43 2.43c-.5.5-1.28.56-1.84.17l-.2-.17-2.63-2.63-.04-.04-.06.02a4.54 4.54 0 0 1-4-.85l-.37-.33-.5-.52-.1-.09-.06.11-1.44 2.39a1.45 1.45 0 0 1-2.05.45l-.21-.17-6.57-6.57a1.45 1.45 0 0 1-.4-1.2l-.1-.01.1.01c.03-.35.2-.67.47-.9l.22-.16 2.38-1.43.11-.07-.09-.09-.51-.51a4.54 4.54 0 0 1-1.28-3.9l.1-.47v-.06l-.03-.03-2.63-2.63c-.5-.5-.56-1.28-.17-1.84l.17-.21 2.43-2.43a7.25 7.25 0 0 1 7.5-1.73l.5.2.06.02.05-.04 1.94-1.95-.07-.07.07.07a14.87 14.87 0 0 1 14.98-3.67 5.92 5.92 0 0 1 3.87 3.87Zm-30.88 22.5.07.06-.07-.07-1.64 1.64.07.07-.07-.07a1.45 1.45 0 0 1-2.05-2.05l1.65-1.63a1.45 1.45 0 1 1 2.04 2.04Zm22.92-3-.02-.21-.15.15-3.65 3.65-.07.08.07.06 1.09 1.1.07.06.07-.07 1.33-1.33a4.35 4.35 0 0 0 1.26-3.49Zm-16.76-1.86-.06-.06-.06.04-1.36.81-.1.07.08.09 3.76 3.76.1.1.06-.12.81-1.35.04-.07-.05-.05-3.22-3.22Zm8.43-16.27-.51.48-8.65 8.64a1.65 1.65 0 0 0-.19 2.1v.01l.19.22 8.76 8.76c.57.57 1.46.64 2.1.2l.01-.01.21-.18h.01l8.65-8.65a11.98 11.98 0 0 0 2.95-12.07 3.03 3.03 0 0 0-1.98-1.98 11.98 11.98 0 0 0-11.55 2.48Zm-10.2 3.65-.36.32-1.34 1.34-.07.07.07.07 1.09 1.1.07.06.07-.07 3.65-3.65.15-.15-.2-.02a4.3 4.3 0 0 0-3.12.93Zm2.18 22c.5.5.56 1.27.17 1.83l-.17.21-1.64 1.63a1.45 1.45 0 0 1-2.22-1.84l.18-.2 1.63-1.64a1.45 1.45 0 0 1 2.05 0Zm-3.28-3.3c.5.5.55 1.29.17 1.85l-.18.2-4.08 4.09a1.45 1.45 0 0 1-2.21-1.84l.17-.21 4.08-4.08-.07-.07.07.07a1.45 1.45 0 0 1 2.05 0l.07-.07-.07.07Zm17.96-17.96a4.91 4.91 0 1 1-6.94 6.97 4.91 4.91 0 0 1 6.94-6.97Zm-4.9 2.04a2.02 2.02 0 0 0 0 2.86 2.02 2.02 0 1 0 2.85-2.85 2 2 0 0 0-2.85-.01ZM39.39 382.05a14.86 14.86 0 0 1-3.17 14.45l-.5.53-1.95 1.94-.04.05.02.06a7.26 7.26 0 0 1-1.14 7.58l-.4.42-2.42 2.43c-.5.5-1.28.56-1.84.17l-.21-.18-2.63-2.62-.04-.04-.05.01a4.54 4.54 0 0 1-4-.85l-.37-.33-.51-.51-.1-.1-.06.12-1.43 2.38a1.45 1.45 0 0 1-2.06.46l-.2-.18-6.57-6.56a1.45 1.45 0 0 1-.41-1.2l-.1-.02.1.02c.04-.36.21-.68.47-.9l.23-.17 2.38-1.43.11-.06-.09-.1-.52-.5a4.53 4.53 0 0 1-1.27-3.91l.1-.47v-.05l-.03-.04-2.63-2.63c-.5-.5-.56-1.28-.17-1.84l.17-.2 2.43-2.43a7.25 7.25 0 0 1 7.49-1.73l.5.2.07.02.04-.05 1.95-1.94-.07-.07.07.07a14.87 14.87 0 0 1 14.98-3.67 5.92 5.92 0 0 1 3.87 3.87ZM8.5 404.54l.07.07-.07-.07-1.64 1.63.07.07-.07-.07a1.45 1.45 0 0 1-2.05-2.05l1.64-1.63a1.45 1.45 0 1 1 2.05 2.05Zm22.92-3-.02-.2-.15.15-3.65 3.65-.07.07.07.07 1.08 1.09.08.07.07-.07 1.33-1.34a4.35 4.35 0 0 0 1.26-3.48Zm-16.76-1.86-.06-.05-.07.04-1.35.8-.11.07.09.1 3.76 3.76.1.09.06-.11.8-1.36.05-.06-.06-.06-3.21-3.22Zm8.43-16.27-.51.48-8.65 8.65a1.65 1.65 0 0 0-.2 2.1h.01l.18.22h.01l8.76 8.76c.57.58 1.46.64 2.1.2v-.01l.22-.18 8.65-8.65c3.16-3.16 4.3-7.8 2.96-12.06a3.03 3.03 0 0 0-1.98-1.98 11.98 11.98 0 0 0-11.55 2.47Zm-10.2 3.65-.36.33-1.34 1.34-.07.07.07.07 1.09 1.09.07.07.07-.07 3.65-3.65.15-.16-.21-.01c-1.1-.1-2.21.2-3.11.92Zm2.18 22c.5.5.55 1.27.17 1.84l-.18.2-1.63 1.64a1.45 1.45 0 0 1-2.22-1.84l.18-.2 1.63-1.64a1.45 1.45 0 0 1 2.05 0Zm-3.29-3.29c.5.5.56 1.28.17 1.84l-.17.21-4.08 4.08a1.45 1.45 0 0 1-2.22-1.84l.18-.2 4.08-4.09-.07-.07.07.07a1.45 1.45 0 0 1 2.04 0l.07-.07-.07.07Zm17.97-17.96a4.92 4.92 0 1 1-6.94 6.96 4.92 4.92 0 0 1 6.94-6.96Zm-4.9 2.03c-.79.78-.8 2.06 0 2.86.8.8 2.08.8 2.86.01a2.02 2.02 0 1 0-2.87-2.86Zm76.4-7.79c1.6 5.05.37 10.56-3.17 14.45l-.5.53-1.94 1.94-.05.05.03.06a7.26 7.26 0 0 1-1.15 7.58l-.39.42-2.43 2.43c-.5.5-1.28.56-1.84.17l-.2-.18-2.63-2.62-.04-.04-.06.01a4.54 4.54 0 0 1-4-.85l-.36-.33-.52-.51-.09-.1-.06.12-1.43 2.38a1.45 1.45 0 0 1-2.06.46l-.21-.18-6.57-6.56a1.45 1.45 0 0 1-.4-1.2l-.1-.02.1.02c.04-.36.2-.68.47-.9l.22-.17 2.38-1.43.11-.06-.09-.1-.51-.5a4.53 4.53 0 0 1-1.28-3.91l.1-.47v-.05l-.03-.04-2.63-2.63c-.5-.5-.56-1.28-.17-1.84l.17-.2 2.43-2.43a7.25 7.25 0 0 1 7.5-1.73l.5.2.06.02.05-.05 1.94-1.94-.07-.07.07.07a14.87 14.87 0 0 1 14.98-3.67 5.92 5.92 0 0 1 3.87 3.87Zm-30.88 22.49.07.07-.07-.07-1.63 1.63.07.07-.07-.07a1.45 1.45 0 1 1-2.05-2.05l1.64-1.63a1.45 1.45 0 1 1 2.04 2.05Zm22.92-3-.02-.2-.15.15-3.65 3.65-.07.07.07.07 1.09 1.09.07.07.07-.07 1.34-1.34a4.35 4.35 0 0 0 1.25-3.48Zm-16.76-1.86-.06-.05-.06.04-1.36.8-.1.07.08.1 3.77 3.76.09.09.06-.11.81-1.36.04-.06-.05-.06-3.22-3.22Zm8.43-16.27-.5.48h-.01l-8.65 8.65a1.65 1.65 0 0 0-.19 2.1l.19.22 8.76 8.76c.58.58 1.46.64 2.1.2l.01-.01.22-.18 8.65-8.65c3.15-3.16 4.3-7.8 2.95-12.06a3.03 3.03 0 0 0-1.98-1.98 11.98 11.98 0 0 0-11.55 2.47Zm-10.19 3.65-.37.33-1.34 1.34-.07.07.07.07 1.09 1.09.07.07.07-.07 3.65-3.65.16-.16-.22-.01c-1.09-.1-2.2.2-3.11.92Zm2.17 22c.5.5.56 1.27.17 1.84l-.17.2-1.64 1.64a1.45 1.45 0 0 1-2.21-1.84l.17-.2 1.63-1.64a1.45 1.45 0 0 1 2.05 0Zm-3.28-3.29c.5.5.55 1.28.17 1.84l-.18.21-4.08 4.08a1.45 1.45 0 0 1-2.21-1.84l.17-.2 4.08-4.09-.07-.07.07.07a1.45 1.45 0 0 1 2.05 0l.07-.07-.07.07Zm17.96-17.96a4.92 4.92 0 1 1-6.94 6.96 4.92 4.92 0 0 1 6.94-6.96Zm-4.9 2.03a2.02 2.02 0 0 0 2.87 2.87c.78-.78.78-2.06-.01-2.86-.8-.8-2.08-.79-2.86 0Zm76.4-7.79a14.86 14.86 0 0 1-3.18 14.45l-.5.53-1.94 1.94-.05.05.03.06a7.26 7.26 0 0 1-1.15 7.58l-.38.42-2.43 2.43c-.5.5-1.28.56-1.84.17l-.21-.18-2.63-2.62-.04-.04-.05.01a4.54 4.54 0 0 1-4-.85l-.37-.33-.51-.51-.1-.1-.06.12-1.43 2.38a1.45 1.45 0 0 1-2.06.46l-.2-.18-6.57-6.56a1.45 1.45 0 0 1-.41-1.2l-.1-.02.1.02c.04-.36.21-.68.47-.9l.22-.17 2.39-1.43.1-.06-.08-.1-.52-.5a4.53 4.53 0 0 1-1.27-3.91l.1-.47v-.05l-.03-.04-2.63-2.63c-.5-.5-.56-1.28-.17-1.84l.17-.2 2.43-2.43a7.25 7.25 0 0 1 7.49-1.73l.5.2.07.02.04-.05 1.95-1.94-.07-.07.07.07a14.87 14.87 0 0 1 14.98-3.67 5.92 5.92 0 0 1 3.87 3.87Zm-30.88 22.49.07.07-.07-.07-1.64 1.63.07.07-.07-.07a1.45 1.45 0 1 1-2.05-2.05l1.64-1.63a1.45 1.45 0 1 1 2.05 2.05Zm22.92-3-.02-.2-.15.15-3.66 3.65-.07.07.08.07 1.08 1.09.07.07.07-.07 1.34-1.34a4.35 4.35 0 0 0 1.26-3.48Zm-16.77-1.86-.05-.05-.07.04-1.35.8-.11.07.09.1 3.76 3.76.1.09.06-.11.8-1.36.05-.06-.06-.06-3.22-3.22Zm8.43-16.27-.5.48-8.65 8.65a1.65 1.65 0 0 0-.2 2.1h.01l.18.22 8.77 8.76c.57.58 1.46.64 2.1.2v-.01l.22-.18 8.65-8.65c3.16-3.16 4.3-7.8 2.96-12.06a3.03 3.03 0 0 0-1.98-1.98 11.98 11.98 0 0 0-11.56 2.47Zm-10.19 3.65-.36.33-1.34 1.34-.08.07.08.07 1.08 1.09.08.07.07-.07 3.65-3.65.15-.16-.21-.01c-1.1-.1-2.21.2-3.12.92Zm2.17 22c.5.5.56 1.27.17 1.84l-.17.2-1.63 1.64a1.45 1.45 0 0 1-2.22-1.84l.17-.2 1.64-1.64a1.45 1.45 0 0 1 2.04 0Zm-3.28-3.29c.5.5.56 1.28.17 1.84l-.17.21-4.08 4.08a1.45 1.45 0 0 1-2.22-1.84l.18-.2 4.08-4.09-.07-.07.07.07a1.45 1.45 0 0 1 2.04 0l.07-.07-.07.07Zm17.97-17.96a4.92 4.92 0 1 1-6.94 6.96 4.92 4.92 0 0 1 6.94-6.96Zm-4.9 2.03c-.79.78-.8 2.06 0 2.86a2.01 2.01 0 1 0 2.85-2.85c-.8-.8-2.08-.79-2.86 0Zm76.39-7.79c1.6 5.05.37 10.56-3.17 14.45l-.5.53-1.94 1.94-.05.05.03.06a7.26 7.26 0 0 1-1.15 7.58l-.39.42-2.43 2.43c-.5.5-1.28.56-1.84.17l-.2-.18-2.63-2.62-.04-.04-.06.01a4.54 4.54 0 0 1-4-.85l-.37-.33-.5-.51-.1-.1-.06.12-1.44 2.38a1.45 1.45 0 0 1-2.05.46l-.21-.18-6.57-6.56a1.44 1.44 0 0 1-.4-1.2l-.1-.02.1.02c.03-.36.2-.68.47-.9l.22-.17 2.38-1.43.11-.06-.09-.1-.51-.5a4.53 4.53 0 0 1-1.28-3.91l.1-.47v-.05l-.03-.04-2.63-2.63c-.5-.5-.56-1.28-.17-1.84l.17-.2 2.43-2.43a7.25 7.25 0 0 1 7.5-1.73l.5.2.06.02.05-.05 1.94-1.94-.07-.07.07.07a14.87 14.87 0 0 1 14.98-3.67 5.92 5.92 0 0 1 3.87 3.87Zm-30.88 22.49.07.07-.07-.07-1.64 1.63.07.07-.07-.07a1.45 1.45 0 0 1-2.05-2.05l1.65-1.63a1.45 1.45 0 1 1 2.04 2.05Zm22.92-3-.02-.2-.15.15-3.65 3.65-.07.07.07.07 1.09 1.09.07.07.07-.07 1.33-1.34a4.35 4.35 0 0 0 1.26-3.48Zm-16.76-1.86-.06-.05-.06.04-1.36.8-.1.07.08.1 3.76 3.76.1.09.06-.11.81-1.36.04-.06-.05-.06-3.22-3.22Zm8.43-16.27-.51.48-8.65 8.65a1.65 1.65 0 0 0-.19 2.1l.19.22 8.76 8.76c.57.58 1.46.64 2.1.2l.01-.01.21-.18h.01l8.65-8.65c3.15-3.16 4.3-7.8 2.95-12.06a3.03 3.03 0 0 0-1.98-1.98 11.98 11.98 0 0 0-11.55 2.47Zm-10.2 3.65-.36.33-1.34 1.34-.07.07.07.07 1.09 1.09.07.07.07-.07 3.65-3.65.15-.16-.2-.01c-1.1-.1-2.22.2-3.12.92Zm2.18 22c.5.5.56 1.27.17 1.84l-.17.2-1.64 1.64a1.45 1.45 0 0 1-2.22-1.84l.18-.2 1.63-1.64a1.45 1.45 0 0 1 2.05 0Zm-3.28-3.29c.5.5.55 1.28.17 1.84l-.18.21-4.08 4.08a1.45 1.45 0 0 1-2.21-1.84l.17-.2 4.08-4.09-.07-.07.07.07a1.45 1.45 0 0 1 2.05 0l.07-.07-.07.07Zm17.96-17.96a4.92 4.92 0 1 1-6.94 6.96 4.92 4.92 0 0 1 6.94-6.96Zm-4.9 2.03a2.02 2.02 0 0 0 2.87 2.87c.78-.78.78-2.06-.02-2.86-.8-.8-2.07-.79-2.86 0ZM39.39 443.91a14.87 14.87 0 0 1-3.17 14.46l-.5.52-1.95 1.95-.04.04.02.07a7.26 7.26 0 0 1-1.14 7.57l-.4.42-2.42 2.43c-.5.5-1.28.56-1.84.17l-.21-.17-2.63-2.63-.04-.04-.05.02a4.54 4.54 0 0 1-4-.85l-.37-.34-.51-.51-.1-.1-.06.12-1.43 2.39a1.44 1.44 0 0 1-2.06.45l-.2-.18-6.57-6.56a1.45 1.45 0 0 1-.41-1.2l-.1-.01.1.01c.04-.35.21-.67.47-.9l.23-.17 2.38-1.42.11-.07-.09-.09-.52-.51a4.53 4.53 0 0 1-1.27-3.9l.1-.47v-.06l-.03-.03-2.63-2.63c-.5-.5-.56-1.28-.17-1.84l.17-.21 2.43-2.43a7.25 7.25 0 0 1 7.49-1.73l.5.2.07.02.04-.04 1.95-1.95-.07-.07.07.07a14.87 14.87 0 0 1 14.98-3.67 5.92 5.92 0 0 1 3.87 3.87ZM8.5 466.4l.07.07-.07-.07-1.64 1.64.07.07-.07-.07a1.45 1.45 0 0 1-2.05-2.05l1.64-1.64a1.45 1.45 0 1 1 2.05 2.05Zm22.92-2.99-.02-.21-.15.15L27.6 467l-.07.07.07.07 1.08 1.1.08.06.07-.07 1.33-1.33a4.35 4.35 0 0 0 1.26-3.49Zm-16.76-1.86-.06-.06-.07.04-1.35.81-.11.07.09.09 3.76 3.76.1.1.06-.12.8-1.35.05-.07-.06-.06-3.21-3.21Zm8.43-16.28-.51.48-8.65 8.65a1.65 1.65 0 0 0-.2 2.1h.01l.18.22.01.01 8.76 8.76c.57.57 1.46.63 2.1.19l.22-.18v-.01l8.65-8.64a11.98 11.98 0 0 0 2.96-12.07 3.03 3.03 0 0 0-1.98-1.98 11.98 11.98 0 0 0-11.55 2.47Zm-10.2 3.65-.36.33-1.34 1.34-.07.07.07.07 1.09 1.1.07.06.07-.07 3.65-3.65.15-.15-.21-.02c-1.1-.1-2.21.2-3.11.92Zm2.18 22c.5.5.55 1.28.17 1.84l-.18.2-1.63 1.64a1.45 1.45 0 0 1-2.22-1.84l.18-.2 1.63-1.64a1.45 1.45 0 0 1 2.05 0Zm-3.29-3.28c.5.5.56 1.28.17 1.84l-.17.2-4.08 4.09a1.45 1.45 0 0 1-2.22-1.84l.18-.21 4.08-4.08-.07-.07.07.07a1.45 1.45 0 0 1 2.04 0l.07-.07-.07.07Zm17.97-17.97a4.92 4.92 0 1 1-6.94 6.97 4.92 4.92 0 0 1 6.94-6.97Zm-4.9 2.04c-.79.78-.8 2.06 0 2.86a2.02 2.02 0 1 0 2.85-2.85c-.8-.8-2.08-.8-2.86-.01Zm76.4-7.8c1.6 5.06.37 10.56-3.17 14.46l-.5.52-1.94 1.95-.05.04.03.07a7.26 7.26 0 0 1-1.15 7.57l-.39.42-2.43 2.43c-.5.5-1.28.56-1.84.17l-.2-.17-2.63-2.63-.04-.04-.06.02a4.54 4.54 0 0 1-4-.85l-.36-.34-.52-.51-.09-.1-.06.12-1.43 2.39a1.45 1.45 0 0 1-2.06.45l-.21-.18-6.57-6.56a1.45 1.45 0 0 1-.4-1.2l-.1-.01.1.01c.04-.35.2-.67.47-.9l.22-.17 2.38-1.42.11-.07-.09-.09-.51-.51a4.53 4.53 0 0 1-1.28-3.9l.1-.47v-.06l-.03-.03-2.63-2.63c-.5-.5-.56-1.28-.17-1.84l.17-.21 2.43-2.43a7.25 7.25 0 0 1 7.5-1.73l.5.2.06.02.05-.04 1.94-1.95-.07-.07.07.07a14.87 14.87 0 0 1 14.98-3.67 5.92 5.92 0 0 1 3.87 3.87ZM70.37 466.4l.07.07-.07-.07-1.63 1.64.07.07-.07-.07a1.45 1.45 0 1 1-2.05-2.05l1.64-1.64a1.45 1.45 0 1 1 2.04 2.05Zm22.92-2.99-.02-.21-.15.15-3.65 3.65-.07.07.07.07 1.09 1.1.07.06.07-.07 1.34-1.33a4.35 4.35 0 0 0 1.25-3.49Zm-16.76-1.86-.06-.06-.06.04-1.36.81-.1.07.08.09 3.77 3.76.09.1.06-.12.81-1.35.04-.07-.05-.06-3.22-3.21Zm8.43-16.28-.5.48h-.01l-8.65 8.65a1.65 1.65 0 0 0-.19 2.1l.19.22v.01l8.76 8.76c.58.57 1.46.63 2.1.19h.01l.22-.18v-.01l8.65-8.64a11.98 11.98 0 0 0 2.95-12.07 3.03 3.03 0 0 0-1.98-1.98 11.98 11.98 0 0 0-11.55 2.47Zm-10.19 3.65-.37.33-1.34 1.34-.07.07.07.07 1.09 1.1.07.06.07-.07 3.65-3.65.16-.15-.22-.02c-1.09-.1-2.2.2-3.11.92Zm2.17 22c.5.5.56 1.28.17 1.84l-.17.2-1.64 1.64a1.45 1.45 0 0 1-2.21-1.84l.17-.2 1.63-1.64a1.45 1.45 0 0 1 2.05 0Zm-3.28-3.28c.5.5.55 1.28.17 1.84l-.18.2-4.08 4.09a1.45 1.45 0 0 1-2.21-1.84l.17-.21 4.08-4.08-.07-.07.07.07a1.45 1.45 0 0 1 2.05 0l.07-.07-.07.07Zm17.96-17.97a4.92 4.92 0 1 1-6.94 6.97 4.92 4.92 0 0 1 6.94-6.97Zm-4.9 2.04a2.03 2.03 0 0 0 0 2.86 2.02 2.02 0 1 0 2.85-2.85 2 2 0 0 0-2.85-.01Zm76.4-7.8a14.88 14.88 0 0 1-3.18 14.46l-.5.52-1.94 1.95-.05.04.03.07a7.26 7.26 0 0 1-1.15 7.57l-.38.42-2.43 2.43c-.5.5-1.28.56-1.84.17l-.21-.17-2.63-2.63-.04-.04-.05.02a4.54 4.54 0 0 1-4-.85l-.37-.34-.51-.51-.1-.1-.06.12-1.43 2.39a1.45 1.45 0 0 1-2.06.45l-.2-.18-6.57-6.56a1.45 1.45 0 0 1-.41-1.2l-.1-.01.1.01c.04-.35.21-.67.47-.9l.22-.17 2.39-1.42.1-.07-.08-.09-.52-.51a4.53 4.53 0 0 1-1.27-3.9l.1-.47v-.06l-.03-.03-2.63-2.63c-.5-.5-.56-1.28-.17-1.84l.17-.21 2.43-2.43a7.25 7.25 0 0 1 7.49-1.73l.5.2.07.02.04-.04 1.95-1.95-.07-.07.07.07a14.87 14.87 0 0 1 14.98-3.67 5.92 5.92 0 0 1 3.87 3.87Zm-30.88 22.49.07.07-.07-.07-1.64 1.64.07.07-.07-.07a1.45 1.45 0 1 1-2.05-2.05l1.64-1.64a1.45 1.45 0 1 1 2.05 2.05Zm22.92-2.99-.02-.21-.15.15-3.66 3.65-.07.07.08.07 1.08 1.1.07.06.07-.07 1.34-1.33a4.35 4.35 0 0 0 1.26-3.49Zm-16.77-1.86-.05-.06-.07.04-1.35.81-.11.07.09.09 3.76 3.76.1.1.06-.12.8-1.35.05-.07-.06-.06-3.22-3.21Zm8.43-16.28-.5.48-8.65 8.65a1.65 1.65 0 0 0-.2 2.1h.01l.18.22v.01l8.77 8.76c.57.57 1.46.63 2.1.19l.22-.18v-.01l8.65-8.64a11.98 11.98 0 0 0 2.96-12.07 3.03 3.03 0 0 0-1.98-1.98 11.98 11.98 0 0 0-11.56 2.47Zm-10.19 3.65-.36.33-1.34 1.34-.08.07.08.07 1.08 1.1.08.06.07-.07 3.65-3.65.15-.15-.21-.02c-1.1-.1-2.21.2-3.12.92Zm2.17 22c.5.5.56 1.28.17 1.84l-.17.2-1.63 1.64a1.45 1.45 0 0 1-2.22-1.84l.17-.2 1.64-1.64a1.45 1.45 0 0 1 2.04 0Zm-3.28-3.28c.5.5.56 1.28.17 1.84l-.17.2-4.08 4.09a1.45 1.45 0 0 1-2.22-1.84l.18-.21 4.08-4.08-.07-.07.07.07a1.45 1.45 0 0 1 2.04 0l.07-.07-.07.07Zm17.97-17.97a4.92 4.92 0 1 1-6.94 6.96 4.92 4.92 0 0 1 6.94-6.96Zm-4.9 2.04c-.79.78-.8 2.06 0 2.86a2.02 2.02 0 1 0 2.85-2.85c-.8-.8-2.08-.8-2.86-.01Zm76.39-7.8c1.6 5.06.37 10.56-3.17 14.46l-.5.52-1.94 1.95-.05.04.03.07a7.26 7.26 0 0 1-1.15 7.57l-.39.42-2.43 2.43c-.5.5-1.28.56-1.84.17l-.2-.17-2.63-2.63-.04-.04-.06.02a4.54 4.54 0 0 1-4-.85l-.37-.34-.5-.51-.1-.1-.06.12-1.44 2.39a1.45 1.45 0 0 1-2.05.45l-.21-.18-6.57-6.56a1.45 1.45 0 0 1-.4-1.2l-.1-.01.1.01c.03-.35.2-.67.47-.9l.22-.17 2.38-1.42.11-.07-.09-.09-.51-.51a4.54 4.54 0 0 1-1.28-3.9l.1-.47v-.06l-.03-.03-2.63-2.63c-.5-.5-.56-1.28-.17-1.84l.17-.21 2.43-2.43a7.25 7.25 0 0 1 7.5-1.73l.5.2.06.02.05-.04 1.94-1.95-.07-.07.07.07a14.87 14.87 0 0 1 14.98-3.67 5.92 5.92 0 0 1 3.87 3.87ZM194.1 466.4l.07.07-.07-.07-1.64 1.64.07.07-.07-.07a1.45 1.45 0 0 1-2.05-2.05l1.65-1.64a1.45 1.45 0 1 1 2.04 2.05Zm22.92-2.99-.02-.21-.15.15-3.65 3.65-.07.07.07.07 1.09 1.1.07.06.07-.07 1.33-1.33a4.35 4.35 0 0 0 1.26-3.49Zm-16.76-1.86-.06-.06-.06.04-1.36.81-.1.07.08.09 3.76 3.76.1.1.06-.12.81-1.35.04-.07-.05-.06-3.22-3.21Zm8.43-16.28-.51.48-8.65 8.65a1.65 1.65 0 0 0-.19 2.1l.19.22v.01l8.76 8.76c.57.57 1.46.63 2.1.19h.01l.21-.18.01-.01 8.65-8.64a11.98 11.98 0 0 0 2.95-12.07 3.02 3.02 0 0 0-1.98-1.98 11.98 11.98 0 0 0-11.55 2.47Zm-10.2 3.65-.36.33-1.34 1.34-.07.07.07.07 1.09 1.1.07.06.07-.07 3.65-3.65.15-.15-.2-.02c-1.1-.1-2.22.2-3.12.92Zm2.18 22c.5.5.56 1.28.17 1.84l-.17.2-1.64 1.64a1.45 1.45 0 0 1-2.22-1.84l.18-.2 1.63-1.64a1.45 1.45 0 0 1 2.05 0Zm-3.28-3.28c.5.5.55 1.28.17 1.84l-.18.2-4.08 4.09a1.45 1.45 0 0 1-2.21-1.84l.17-.21 4.08-4.08-.07-.07.07.07a1.45 1.45 0 0 1 2.05 0l.07-.07-.07.07Zm17.96-17.97a4.92 4.92 0 1 1-6.94 6.96 4.92 4.92 0 0 1 6.94-6.96Zm-4.9 2.04a2.02 2.02 0 0 0 0 2.86 2.02 2.02 0 1 0 2.85-2.85 2 2 0 0 0-2.85-.01Z" opacity=".05"/>
</svg>